<svg viewBox="0 0 900 56" xmlns="http://www.w3.org/2000/svg">
<line x1="20" x2="42" y1="12" y2="12" stroke="#4FB2C2" stroke-width="1.6"/>
<circle cx="31" cy="12" r="2.2" fill="#4FB2C2"/>
<text x="48" y="15.5" font-family="JetBrains Mono,monospace" font-size="9.5" fill="#3A4853">EN↔ZH fact (same content)</text>
<line x1="20" x2="42" y1="28" y2="28" stroke="#9A7A12" stroke-width="1.6"/>
<polygon points="31,25.1 33.2,28 31,30.9 28.8,28" fill="#9A7A12"/>
<text x="48" y="31.5" font-family="JetBrains Mono,monospace" font-size="9.5" fill="#3A4853">EN↔ZH poem (same content)</text>
<line x1="20" x2="42" y1="44" y2="44" stroke="#3A9AAA" stroke-width="1.6"/>
<circle cx="31" cy="44" r="2.2" fill="#3A9AAA"/>
<text x="48" y="47.5" font-family="JetBrains Mono,monospace" font-size="9.5" fill="#3A4853">EN paraphrase (same-lang)</text>
<line x1="450" x2="472" y1="12" y2="12" stroke="#2E7E94" stroke-width="1.6"/>
<rect x="459" y="10" width="4" height="4" fill="#2E7E94"/>
<text x="478" y="15.5" font-family="JetBrains Mono,monospace" font-size="9.5" fill="#3A4853">EN↔FR fact (same content)</text>
<line x1="450" x2="472" y1="28" y2="28" stroke="#69757F" stroke-width="1.6" stroke-dasharray="3 2"/>
<circle cx="461" cy="28" r="2.2" fill="#69757F"/>
<text x="478" y="31.5" font-family="JetBrains Mono,monospace" font-size="9.5" fill="#3A4853">same-lang diff-content</text>
<line x1="450" x2="472" y1="44" y2="44" stroke="#7A52A8" stroke-width="1.6" stroke-dasharray="3 2"/>
<circle cx="461" cy="44" r="2.2" fill="#7A52A8"/>
<text x="478" y="47.5" font-family="JetBrains Mono,monospace" font-size="9.5" fill="#3A4853">EN↔ZH diff-content (floor)</text>
</svg>