<svg id="figCrossLang" viewBox="0 0 900 300" xmlns="http://www.w3.org/2000/svg">
<line x1="58" x2="880" y1="231.4" y2="231.4" stroke="#B4C0C8" stroke-width="0.8"/>
<text x="53" y="234.9" font-family="JetBrains Mono,monospace" font-size="9.5" fill="#69757F" text-anchor="end">0</text>
<line x1="58" x2="880" y1="160.8" y2="160.8" stroke="#D2DAE0" stroke-width="0.4"/>
<text x="53" y="164.3" font-family="JetBrains Mono,monospace" font-size="9.5" fill="#69757F" text-anchor="end">+0.25</text>
<line x1="58" x2="880" y1="90.1" y2="90.1" stroke="#D2DAE0" stroke-width="0.4"/>
<text x="53" y="93.6" font-family="JetBrains Mono,monospace" font-size="9.5" fill="#69757F" text-anchor="end">+0.5</text>
<text x="11" y="141" font-family="JetBrains Mono,monospace" font-size="9.5" letter-spacing="1" fill="#7B8794" text-anchor="middle" transform="rotate(-90 11 141)">cross-lingual cosine (mean ±1σ)</text>
<polygon points="58.0,73.6 75.5,69.6 93.0,106.4 110.5,73.7 128.0,45.6 145.4,176.4 162.9,203.1 180.4,193.3 197.9,180.3 215.4,149.9 232.9,166.4 250.4,97.3 267.9,119.7 285.4,110.1 302.9,77.1 320.3,45.2 337.8,35.2 355.3,36.9 372.8,15.9 390.3,15.0 407.8,6.5 425.3,-8.0 442.8,-8.2 460.3,-10.3 477.7,-9.9 495.2,-4.0 512.7,-4.3 530.2,-1.3 547.7,11.3 565.2,41.7 582.7,40.1 600.2,43.1 617.7,51.3 635.1,59.1 652.6,69.8 670.1,73.9 687.6,88.1 705.1,84.4 722.6,102.3 740.1,111.4 757.6,120.4 775.1,131.9 792.6,150.8 810.0,157.5 827.5,157.0 845.0,154.6 862.5,165.4 880.0,170.4 880.0,288.3 862.5,248.5 845.0,244.4 827.5,236.7 810.0,237.2 792.6,232.2 775.1,217.7 757.6,213.6 740.1,198.4 722.6,193.5 705.1,173.5 687.6,180.4 670.1,170.6 652.6,162.2 635.1,167.5 617.7,158.1 600.2,166.7 582.7,153.3 565.2,150.3 547.7,118.3 530.2,119.6 512.7,129.2 495.2,153.2 477.7,140.8 460.3,140.5 442.8,139.8 425.3,139.3 407.8,134.2 390.3,138.8 372.8,126.2 355.3,162.2 337.8,158.4 320.3,172.9 302.9,249.6 285.4,305.1 267.9,305.9 250.4,350.5 232.9,280.0 215.4,308.5 197.9,296.4 180.4,293.1 162.9,283.6 145.4,289.3 128.0,339.5 110.5,319.7 93.0,300.8 75.5,320.0 58.0,330.9" fill="#9A7A12" fill-opacity="0.12" stroke="none"/>
<path d="M58.0,202.2 L75.5,194.8 L93.0,203.6 L110.5,196.7 L128.0,192.5 L145.4,232.8 L162.9,243.3 L180.4,243.2 L197.9,238.4 L215.4,229.2 L232.9,223.2 L250.4,223.9 L267.9,212.8 L285.4,207.6 L302.9,163.4 L320.3,109.0 L337.8,96.8 L355.3,99.6 L372.8,71.0 L390.3,76.9 L407.8,70.3 L425.3,65.7 L442.8,65.8 L460.3,65.1 L477.7,65.5 L495.2,74.6 L512.7,62.4 L530.2,59.1 L547.7,64.8 L565.2,96.0 L582.7,96.7 L600.2,104.9 L617.7,104.7 L635.1,113.3 L652.6,116.0 L670.1,122.3 L687.6,134.3 L705.1,129.0 L722.6,147.9 L740.1,154.9 L757.6,167.0 L775.1,174.8 L792.6,191.5 L810.0,197.4 L827.5,196.9 L845.0,199.5 L862.5,206.9 L880.0,229.4" fill="none" stroke="#9A7A12" stroke-width="1.8" stroke-linejoin="round"/>
<circle cx="58.0" cy="202.2" r="1.8" fill="#9A7A12"/>
<circle cx="93.0" cy="203.6" r="1.8" fill="#9A7A12"/>
<circle cx="128.0" cy="192.5" r="1.8" fill="#9A7A12"/>
<circle cx="162.9" cy="243.3" r="1.8" fill="#9A7A12"/>
<circle cx="197.9" cy="238.4" r="1.8" fill="#9A7A12"/>
<circle cx="232.9" cy="223.2" r="1.8" fill="#9A7A12"/>
<circle cx="267.9" cy="212.8" r="1.8" fill="#9A7A12"/>
<circle cx="302.9" cy="163.4" r="1.8" fill="#9A7A12"/>
<circle cx="337.8" cy="96.8" r="1.8" fill="#9A7A12"/>
<circle cx="372.8" cy="71.0" r="1.8" fill="#9A7A12"/>
<circle cx="407.8" cy="70.3" r="1.8" fill="#9A7A12"/>
<circle cx="442.8" cy="65.8" r="1.8" fill="#9A7A12"/>
<circle cx="477.7" cy="65.5" r="1.8" fill="#9A7A12"/>
<circle cx="512.7" cy="62.4" r="1.8" fill="#9A7A12"/>
<circle cx="547.7" cy="64.8" r="1.8" fill="#9A7A12"/>
<circle cx="582.7" cy="96.7" r="1.8" fill="#9A7A12"/>
<circle cx="617.7" cy="104.7" r="1.8" fill="#9A7A12"/>
<circle cx="652.6" cy="116.0" r="1.8" fill="#9A7A12"/>
<circle cx="687.6" cy="134.3" r="1.8" fill="#9A7A12"/>
<circle cx="722.6" cy="147.9" r="1.8" fill="#9A7A12"/>
<circle cx="757.6" cy="167.0" r="1.8" fill="#9A7A12"/>
<circle cx="792.6" cy="191.5" r="1.8" fill="#9A7A12"/>
<circle cx="827.5" cy="196.9" r="1.8" fill="#9A7A12"/>
<circle cx="862.5" cy="206.9" r="1.8" fill="#9A7A12"/>
<polygon points="58.0,53.5 75.5,71.8 93.0,110.6 110.5,65.6 128.0,47.6 145.4,167.1 162.9,192.5 180.4,182.0 197.9,191.6 215.4,158.4 232.9,142.6 250.4,86.2 267.9,117.5 285.4,118.3 302.9,83.1 320.3,54.5 337.8,58.9 355.3,55.9 372.8,43.5 390.3,48.4 407.8,35.1 425.3,14.2 442.8,25.8 460.3,31.0 477.7,33.8 495.2,35.5 512.7,36.1 530.2,45.0 547.7,59.9 565.2,67.2 582.7,63.2 600.2,70.3 617.7,74.4 635.1,77.8 652.6,88.2 670.1,93.7 687.6,98.8 705.1,99.3 722.6,109.4 740.1,117.1 757.6,118.9 775.1,129.1 792.6,144.2 810.0,148.4 827.5,150.8 845.0,154.8 862.5,170.0 880.0,139.1 880.0,286.2 862.5,243.0 845.0,238.9 827.5,231.9 810.0,231.9 792.6,228.7 775.1,214.4 757.6,204.5 740.1,203.1 722.6,201.2 705.1,196.0 687.6,196.4 670.1,193.2 652.6,184.6 635.1,180.4 617.7,177.2 600.2,188.8 582.7,182.2 565.2,183.8 547.7,179.2 530.2,166.5 512.7,157.9 495.2,149.4 477.7,136.6 460.3,128.6 442.8,115.3 425.3,101.4 407.8,124.8 390.3,152.0 372.8,132.8 355.3,152.8 337.8,151.3 320.3,141.8 302.9,207.4 285.4,273.7 267.9,277.8 250.4,334.5 232.9,276.2 215.4,294.1 197.9,289.3 180.4,286.0 162.9,278.9 145.4,290.1 128.0,341.4 110.5,330.7 93.0,308.8 75.5,330.9 58.0,348.2" fill="#4FB2C2" fill-opacity="0.12" stroke="none"/>
<path d="M58.0,200.8 L75.5,201.4 L93.0,209.7 L110.5,198.1 L128.0,194.5 L145.4,228.6 L162.9,235.7 L180.4,234.0 L197.9,240.5 L215.4,226.3 L232.9,209.4 L250.4,210.4 L267.9,197.7 L285.4,196.0 L302.9,145.3 L320.3,98.1 L337.8,105.1 L355.3,104.3 L372.8,88.1 L390.3,100.2 L407.8,80.0 L425.3,57.8 L442.8,70.6 L460.3,79.8 L477.7,85.2 L495.2,92.5 L512.7,97.0 L530.2,105.7 L547.7,119.6 L565.2,125.5 L582.7,122.7 L600.2,129.6 L617.7,125.8 L635.1,129.1 L652.6,136.4 L670.1,143.4 L687.6,147.6 L705.1,147.7 L722.6,155.3 L740.1,160.1 L757.6,161.7 L775.1,171.8 L792.6,186.4 L810.0,190.2 L827.5,191.3 L845.0,196.8 L862.5,206.5 L880.0,212.7" fill="none" stroke="#4FB2C2" stroke-width="1.8" stroke-linejoin="round" stroke-dasharray="4 2"/>
<polygon points="58.0,198.50546876136556 59.98,202.28546876136556 56.02,202.28546876136556" fill="#4FB2C2"/>
<polygon points="92.97872340425532,207.34641911884805 94.95872340425532,211.12641911884805 90.99872340425532,211.12641911884805" fill="#4FB2C2"/>
<polygon points="127.95744680851064,192.12012890541533 129.93744680851063,195.90012890541533 125.97744680851063,195.90012890541533" fill="#4FB2C2"/>
<polygon points="162.93617021276594,233.34833841068834 164.91617021276593,237.12833841068834 160.95617021276595,237.12833841068834" fill="#4FB2C2"/>
<polygon points="197.91489361702128,238.13008143023686 199.89489361702127,241.91008143023686 195.9348936170213,241.91008143023686" fill="#4FB2C2"/>
<polygon points="232.89361702127658,207.06421936673846 234.87361702127657,210.84421936673846 230.9136170212766,210.84421936673846" fill="#4FB2C2"/>
<polygon points="267.8723404255319,195.3166724753406 269.8523404255319,199.0966724753406 265.89234042553187,199.0966724753406" fill="#4FB2C2"/>
<polygon points="302.8510638297872,142.94287258879714 304.83106382978724,146.72287258879714 300.8710638297872,146.72287258879714" fill="#4FB2C2"/>
<polygon points="337.82978723404256,102.75217214146348 339.8097872340426,106.53217214146348 335.84978723404254,106.53217214146348" fill="#4FB2C2"/>
<polygon points="372.8085106382979,85.80463018041215 374.7885106382979,89.58463018041215 370.82851063829787,89.58463018041215" fill="#4FB2C2"/>
<polygon points="407.78723404255317,77.6110833155025 409.7672340425532,81.3910833155025 405.80723404255315,81.3910833155025" fill="#4FB2C2"/>
<polygon points="442.7659574468085,68.2130628982141 444.7459574468085,71.9930628982141 440.7859574468085,71.9930628982141" fill="#4FB2C2"/>
<polygon points="477.7446808510638,82.87643121017877 479.7246808510638,86.65643121017877 475.76468085106376,86.65643121017877" fill="#4FB2C2"/>
<polygon points="512.7234042553191,94.65215981238097 514.7034042553191,98.43215981238097 510.7434042553191,98.43215981238097" fill="#4FB2C2"/>
<polygon points="547.7021276595744,117.23993961175849 549.6821276595745,121.01993961175849 545.7221276595744,121.01993961175849" fill="#4FB2C2"/>
<polygon points="582.6808510638298,120.38648521311102 584.6608510638298,124.16648521311102 580.7008510638298,124.16648521311102" fill="#4FB2C2"/>
<polygon points="617.6595744680851,123.44312212851915 619.6395744680851,127.22312212851915 615.6795744680851,127.22312212851915" fill="#4FB2C2"/>
<polygon points="652.6382978723404,134.09487710657558 654.6182978723405,137.87487710657558 650.6582978723404,137.87487710657558" fill="#4FB2C2"/>
<polygon points="687.6170212765958,145.27133794877537 689.5970212765958,149.05133794877537 685.6370212765958,149.05133794877537" fill="#4FB2C2"/>
<polygon points="722.595744680851,152.92668549893799 724.575744680851,156.706685498938 720.615744680851,156.706685498938" fill="#4FB2C2"/>
<polygon points="757.5744680851063,159.3670357888161 759.5544680851064,163.1470357888161 755.5944680851063,163.1470357888161" fill="#4FB2C2"/>
<polygon points="792.5531914893617,184.102739337267 794.5331914893617,187.882739337267 790.5731914893616,187.882739337267" fill="#4FB2C2"/>
<polygon points="827.531914893617,189.00607026837142 829.511914893617,192.78607026837142 825.551914893617,192.78607026837142" fill="#4FB2C2"/>
<polygon points="862.5106382978723,204.15242012216788 864.4906382978724,207.93242012216788 860.5306382978723,207.93242012216788" fill="#4FB2C2"/>
<polygon points="58.0,87.1 75.5,134.5 93.0,140.8 110.5,95.6 128.0,94.1 145.4,174.4 162.9,190.0 180.4,191.1 197.9,177.1 215.4,165.9 232.9,181.6 250.4,116.4 267.9,157.5 285.4,157.7 302.9,116.9 320.3,52.0 337.8,53.4 355.3,37.3 372.8,27.7 390.3,37.5 407.8,32.6 425.3,33.9 442.8,45.6 460.3,49.3 477.7,53.5 495.2,58.2 512.7,61.4 530.2,59.0 547.7,70.1 565.2,87.4 582.7,86.3 600.2,88.3 617.7,84.1 635.1,90.1 652.6,94.1 670.1,93.8 687.6,108.0 705.1,105.5 722.6,124.8 740.1,128.5 757.6,132.9 775.1,143.2 792.6,156.9 810.0,162.8 827.5,161.1 845.0,160.4 862.5,173.9 880.0,154.1 880.0,311.9 862.5,255.1 845.0,252.8 827.5,244.2 810.0,246.0 792.6,240.4 775.1,229.4 757.6,224.2 740.1,215.5 722.6,217.0 705.1,199.2 687.6,202.2 670.1,194.2 652.6,195.0 635.1,200.5 617.7,194.5 600.2,221.1 582.7,212.9 565.2,211.9 547.7,190.6 530.2,184.8 512.7,192.1 495.2,199.3 477.7,185.0 460.3,183.4 442.8,176.7 425.3,168.2 407.8,161.1 390.3,179.3 372.8,151.5 355.3,155.9 337.8,152.7 320.3,152.3 302.9,243.0 285.4,304.6 267.9,308.1 250.4,358.6 232.9,283.2 215.4,310.3 197.9,287.2 180.4,283.5 162.9,282.0 145.4,294.0 128.0,356.7 110.5,351.8 93.0,325.8 75.5,319.6 58.0,349.0" fill="#2E7E94" fill-opacity="0.12" stroke="none"/>
<path d="M58.0,218.1 L75.5,227.1 L93.0,233.3 L110.5,223.7 L128.0,225.4 L145.4,234.2 L162.9,236.0 L180.4,237.3 L197.9,232.2 L215.4,238.1 L232.9,232.4 L250.4,237.5 L267.9,232.8 L285.4,231.1 L302.9,179.9 L320.3,102.1 L337.8,103.0 L355.3,96.6 L372.8,89.6 L390.3,108.4 L407.8,96.8 L425.3,101.0 L442.8,111.2 L460.3,116.3 L477.7,119.2 L495.2,128.7 L512.7,126.8 L530.2,121.9 L547.7,130.4 L565.2,149.7 L582.7,149.6 L600.2,154.7 L617.7,139.3 L635.1,145.3 L652.6,144.5 L670.1,144.0 L687.6,155.1 L705.1,152.3 L722.6,170.9 L740.1,172.0 L757.6,178.6 L775.1,186.3 L792.6,198.7 L810.0,204.4 L827.5,202.7 L845.0,206.6 L862.5,214.5 L880.0,233.0" fill="none" stroke="#2E7E94" stroke-width="1.8" stroke-linejoin="round" stroke-dasharray="3 1 1 1"/>
<rect x="56.2" y="216.3" width="3.6" height="3.6" fill="#2E7E94"/>
<rect x="91.2" y="231.5" width="3.6" height="3.6" fill="#2E7E94"/>
<rect x="126.2" y="223.6" width="3.6" height="3.6" fill="#2E7E94"/>
<rect x="161.1" y="234.2" width="3.6" height="3.6" fill="#2E7E94"/>
<rect x="196.1" y="230.4" width="3.6" height="3.6" fill="#2E7E94"/>
<rect x="231.1" y="230.6" width="3.6" height="3.6" fill="#2E7E94"/>
<rect x="266.1" y="231.0" width="3.6" height="3.6" fill="#2E7E94"/>
<rect x="301.1" y="178.1" width="3.6" height="3.6" fill="#2E7E94"/>
<rect x="336.0" y="101.2" width="3.6" height="3.6" fill="#2E7E94"/>
<rect x="371.0" y="87.8" width="3.6" height="3.6" fill="#2E7E94"/>
<rect x="406.0" y="95.0" width="3.6" height="3.6" fill="#2E7E94"/>
<rect x="441.0" y="109.4" width="3.6" height="3.6" fill="#2E7E94"/>
<rect x="475.9" y="117.4" width="3.6" height="3.6" fill="#2E7E94"/>
<rect x="510.9" y="125.0" width="3.6" height="3.6" fill="#2E7E94"/>
<rect x="545.9" y="128.6" width="3.6" height="3.6" fill="#2E7E94"/>
<rect x="580.9" y="147.8" width="3.6" height="3.6" fill="#2E7E94"/>
<rect x="615.9" y="137.5" width="3.6" height="3.6" fill="#2E7E94"/>
<rect x="650.8" y="142.7" width="3.6" height="3.6" fill="#2E7E94"/>
<rect x="685.8" y="153.3" width="3.6" height="3.6" fill="#2E7E94"/>
<rect x="720.8" y="169.1" width="3.6" height="3.6" fill="#2E7E94"/>
<rect x="755.8" y="176.8" width="3.6" height="3.6" fill="#2E7E94"/>
<rect x="790.8" y="196.9" width="3.6" height="3.6" fill="#2E7E94"/>
<rect x="825.7" y="200.9" width="3.6" height="3.6" fill="#2E7E94"/>
<rect x="860.7" y="212.7" width="3.6" height="3.6" fill="#2E7E94"/>
<polygon points="58.0,58.0 75.5,65.2 93.0,93.0 110.5,64.2 128.0,42.6 145.4,175.7 162.9,191.7 180.4,186.8 197.9,191.0 215.4,149.8 232.9,160.2 250.4,96.8 267.9,105.5 285.4,100.1 302.9,85.2 320.3,64.0 337.8,68.9 355.3,73.4 372.8,52.9 390.3,58.9 407.8,53.5 425.3,52.7 442.8,59.9 460.3,64.7 477.7,66.3 495.2,68.4 512.7,63.6 530.2,65.7 547.7,79.6 565.2,96.6 582.7,95.7 600.2,103.2 617.7,87.7 635.1,87.5 652.6,92.4 670.1,88.6 687.6,100.1 705.1,99.2 722.6,110.3 740.1,114.4 757.6,120.4 775.1,135.9 792.6,148.6 810.0,150.3 827.5,151.7 845.0,153.4 862.5,169.3 880.0,161.2 880.0,306.4 862.5,244.5 845.0,234.2 827.5,220.1 810.0,218.6 792.6,218.1 775.1,205.6 757.6,199.8 740.1,197.7 722.6,195.7 705.1,186.5 687.6,188.8 670.1,184.3 652.6,185.6 635.1,190.5 617.7,191.6 600.2,218.4 582.7,217.6 565.2,223.8 547.7,216.8 530.2,217.2 512.7,227.5 495.2,234.0 477.7,221.9 460.3,215.4 442.8,202.1 425.3,189.1 407.8,186.7 390.3,193.5 372.8,178.1 355.3,194.8 337.8,174.7 320.3,177.1 302.9,219.2 285.4,279.5 267.9,286.6 250.4,349.4 232.9,268.9 215.4,310.7 197.9,296.1 180.4,300.8 162.9,289.6 145.4,282.6 128.0,303.4 110.5,265.2 93.0,295.2 75.5,321.7 58.0,338.5" fill="#7A52A8" fill-opacity="0.12" stroke="none"/>
<path d="M58.0,198.2 L75.5,193.5 L93.0,194.1 L110.5,164.7 L128.0,173.0 L145.4,229.1 L162.9,240.6 L180.4,243.8 L197.9,243.6 L215.4,230.2 L232.9,214.6 L250.4,223.1 L267.9,196.1 L285.4,189.8 L302.9,152.2 L320.3,120.6 L337.8,121.8 L355.3,134.1 L372.8,115.5 L390.3,126.2 L407.8,120.1 L425.3,120.9 L442.8,131.0 L460.3,140.0 L477.7,144.1 L495.2,151.2 L512.7,145.5 L530.2,141.4 L547.7,148.2 L565.2,160.2 L582.7,156.6 L600.2,160.8 L617.7,139.6 L635.1,139.0 L652.6,139.0 L670.1,136.5 L687.6,144.5 L705.1,142.9 L722.6,153.0 L740.1,156.0 L757.6,160.1 L775.1,170.8 L792.6,183.4 L810.0,184.5 L827.5,185.9 L845.0,193.8 L862.5,206.9 L880.0,233.8" fill="none" stroke="#7A52A8" stroke-width="1.8" stroke-linejoin="round" stroke-dasharray="2 2"/>
<polygon points="58.0,195.89843887777943 59.8,198.23843887777943 58.0,200.57843887777943 56.2,198.23843887777943" fill="#7A52A8"/>
<polygon points="92.97872340425532,191.7631361556984 94.77872340425532,194.1031361556984 92.97872340425532,196.4431361556984 91.17872340425532,194.1031361556984" fill="#7A52A8"/>
<polygon points="127.95744680851064,170.66174058468053 129.75744680851065,173.00174058468053 127.95744680851064,175.34174058468054 126.15744680851064,173.00174058468053" fill="#7A52A8"/>
<polygon points="162.93617021276594,238.30935160332209 164.73617021276596,240.6493516033221 162.93617021276594,242.9893516033221 161.13617021276593,240.6493516033221" fill="#7A52A8"/>
<polygon points="197.91489361702128,241.213376417418 199.7148936170213,243.553376417418 197.91489361702128,245.893376417418 196.11489361702127,243.553376417418" fill="#7A52A8"/>
<polygon points="232.89361702127658,212.25740848798765 234.6936170212766,214.59740848798765 232.89361702127658,216.93740848798765 231.09361702127657,214.59740848798765" fill="#7A52A8"/>
<polygon points="267.8723404255319,193.71308472231934 269.6723404255319,196.05308472231934 267.8723404255319,198.39308472231934 266.0723404255319,196.05308472231934" fill="#7A52A8"/>
<polygon points="302.8510638297872,149.84399784005754 304.65106382978723,152.18399784005754 302.8510638297872,154.52399784005755 301.0510638297872,152.18399784005754" fill="#7A52A8"/>
<polygon points="337.82978723404256,119.48481367673838 339.62978723404257,121.82481367673839 337.82978723404256,124.16481367673839 336.02978723404254,121.82481367673839" fill="#7A52A8"/>
<polygon points="372.8085106382979,113.16682616049818 374.6085106382979,115.50682616049818 372.8085106382979,117.84682616049818 371.0085106382979,115.50682616049818" fill="#7A52A8"/>
<polygon points="407.78723404255317,117.76948212559927 409.5872340425532,120.10948212559927 407.78723404255317,122.44948212559927 405.98723404255315,120.10948212559927" fill="#7A52A8"/>
<polygon points="442.7659574468085,128.66504767961206 444.5659574468085,131.00504767961206 442.7659574468085,133.34504767961207 440.9659574468085,131.00504767961206" fill="#7A52A8"/>
<polygon points="477.7446808510638,141.7224709715234 479.5446808510638,144.0624709715234 477.7446808510638,146.4024709715234 475.94468085106377,144.0624709715234" fill="#7A52A8"/>
<polygon points="512.7234042553191,143.20151602131878 514.5234042553191,145.54151602131878 512.7234042553191,147.8815160213188 510.9234042553191,145.54151602131878" fill="#7A52A8"/>
<polygon points="547.7021276595744,145.8979700294507 549.5021276595744,148.2379700294507 547.7021276595744,150.5779700294507 545.9021276595745,148.2379700294507" fill="#7A52A8"/>
<polygon points="582.6808510638298,154.29385104055652 584.4808510638297,156.63385104055652 582.6808510638298,158.97385104055653 580.8808510638298,156.63385104055652" fill="#7A52A8"/>
<polygon points="617.6595744680851,137.29106765594494 619.4595744680851,139.63106765594495 617.6595744680851,141.97106765594495 615.8595744680852,139.63106765594495" fill="#7A52A8"/>
<polygon points="652.6382978723404,136.6225519316192 654.4382978723404,138.9625519316192 652.6382978723404,141.3025519316192 650.8382978723405,138.9625519316192" fill="#7A52A8"/>
<polygon points="687.6170212765958,142.1551497911927 689.4170212765957,144.49514979119272 687.6170212765958,146.83514979119272 685.8170212765958,144.49514979119272" fill="#7A52A8"/>
<polygon points="722.595744680851,150.67230902011138 724.395744680851,153.0123090201114 722.595744680851,155.3523090201114 720.795744680851,153.0123090201114" fill="#7A52A8"/>
<polygon points="757.5744680851063,157.74038359553435 759.3744680851063,160.08038359553436 757.5744680851063,162.42038359553436 755.7744680851064,160.08038359553436" fill="#7A52A8"/>
<polygon points="792.5531914893617,181.02161230918458 794.3531914893616,183.36161230918458 792.5531914893617,185.70161230918458 790.7531914893617,183.36161230918458" fill="#7A52A8"/>
<polygon points="827.531914893617,183.54151422611608 829.331914893617,185.88151422611608 827.531914893617,188.22151422611608 825.731914893617,185.88151422611608" fill="#7A52A8"/>
<polygon points="862.5106382978723,204.55550053868163 864.3106382978723,206.89550053868163 862.5106382978723,209.23550053868163 860.7106382978724,206.89550053868163" fill="#7A52A8"/>
<text x="58.0" y="268" font-family="JetBrains Mono,monospace" font-size="9.5" fill="#69757F" text-anchor="middle">0</text>
<text x="145.4" y="268" font-family="JetBrains Mono,monospace" font-size="9.5" fill="#69757F" text-anchor="middle">5</text>
<text x="232.9" y="268" font-family="JetBrains Mono,monospace" font-size="9.5" fill="#69757F" text-anchor="middle">10</text>
<text x="320.3" y="268" font-family="JetBrains Mono,monospace" font-size="9.5" fill="#69757F" text-anchor="middle">15</text>
<text x="407.8" y="268" font-family="JetBrains Mono,monospace" font-size="9.5" fill="#69757F" text-anchor="middle">20</text>
<text x="495.2" y="268" font-family="JetBrains Mono,monospace" font-size="9.5" fill="#69757F" text-anchor="middle">25</text>
<text x="582.7" y="268" font-family="JetBrains Mono,monospace" font-size="9.5" fill="#69757F" text-anchor="middle">30</text>
<text x="670.1" y="268" font-family="JetBrains Mono,monospace" font-size="9.5" fill="#69757F" text-anchor="middle">35</text>
<text x="757.6" y="268" font-family="JetBrains Mono,monospace" font-size="9.5" fill="#69757F" text-anchor="middle">40</text>
<text x="845.0" y="268" font-family="JetBrains Mono,monospace" font-size="9.5" fill="#69757F" text-anchor="middle">45</text>
<text x="880.0" y="268" font-family="JetBrains Mono,monospace" font-size="9.5" fill="#69757F" text-anchor="middle">47</text>
<text x="469" y="298" font-family="JetBrains Mono,monospace" font-size="9.5" letter-spacing="1" fill="#7B8794" text-anchor="middle">layer</text>
</svg>