<svg id="figStaircase" viewBox="0 0 900 280" xmlns="http://www.w3.org/2000/svg">
<line x1="58" x2="880" y1="170.2" y2="170.2" stroke="#27323D" stroke-width="0.4"/>
<text x="53" y="173.7" font-family="JetBrains Mono,monospace" font-size="9.5" fill="#6F7C88" text-anchor="end">+0.75</text>
<line x1="58" x2="880" y1="47.6" y2="47.6" stroke="#27323D" stroke-width="0.4"/>
<text x="53" y="51.1" font-family="JetBrains Mono,monospace" font-size="9.5" fill="#6F7C88" text-anchor="end">+1</text>
<text x="11" y="131" font-family="JetBrains Mono,monospace" font-size="9.5" letter-spacing="1" fill="#8893A0" text-anchor="middle" transform="rotate(-90 11 131)">cosine at shared token T</text>
<line x1="160.8" x2="160.8" y1="28" y2="234" stroke="#3A4650" stroke-width="0.6" stroke-dasharray="2 3" opacity="0.6"/>
<line x1="263.5" x2="263.5" y1="28" y2="234" stroke="#3A4650" stroke-width="0.6" stroke-dasharray="2 3" opacity="0.6"/>
<line x1="366.2" x2="366.2" y1="28" y2="234" stroke="#3A4650" stroke-width="0.6" stroke-dasharray="2 3" opacity="0.6"/>
<line x1="469.0" x2="469.0" y1="28" y2="234" stroke="#3A4650" stroke-width="0.6" stroke-dasharray="2 3" opacity="0.6"/>
<line x1="571.8" x2="571.8" y1="28" y2="234" stroke="#3A4650" stroke-width="0.6" stroke-dasharray="2 3" opacity="0.6"/>
<line x1="674.5" x2="674.5" y1="28" y2="234" stroke="#3A4650" stroke-width="0.6" stroke-dasharray="2 3" opacity="0.6"/>
<line x1="777.2" x2="777.2" y1="28" y2="234" stroke="#3A4650" stroke-width="0.6" stroke-dasharray="2 3" opacity="0.6"/>
<line x1="880.0" x2="880.0" y1="28" y2="234" stroke="#3A4650" stroke-width="0.6" stroke-dasharray="2 3" opacity="0.6"/>
<path d="M58.0,47.6 L75.1,49.9 L92.2,49.4 L109.4,48.5 L126.5,49.3 L143.6,49.7 L160.8,49.6 L177.9,49.8 L195.0,49.9 L212.1,49.1 L229.2,48.5 L246.4,49.2 L263.5,47.9 L280.6,47.7 L297.8,47.7 L314.9,48.2 L332.0,49.1 L349.1,51.7 L366.2,58.0 L383.4,70.8 L400.5,71.7 L417.6,76.6 L434.8,75.9 L451.9,69.4 L469.0,64.7 L486.1,65.6 L503.2,68.5 L520.4,82.7 L537.5,97.7 L554.6,100.2 L571.8,94.7 L588.9,101.1 L606.0,108.9 L623.1,107.9 L640.2,99.5 L657.4,116.9 L674.5,101.7 L691.6,94.5 L708.8,107.2 L725.9,105.9 L743.0,139.1 L760.1,204.8 L777.2,131.3 L794.4,114.5 L811.5,115.9 L828.6,124.8 L845.8,127.5 L862.9,169.2 L880.0,66.6" fill="none" stroke="#6E92C4" stroke-width="2.0" stroke-linejoin="round"/>
<circle cx="58.0" cy="47.6" r="1.8" fill="#6E92C4"/>
<circle cx="92.2" cy="49.4" r="1.8" fill="#6E92C4"/>
<circle cx="126.5" cy="49.3" r="1.8" fill="#6E92C4"/>
<circle cx="160.8" cy="49.6" r="1.8" fill="#6E92C4"/>
<circle cx="195.0" cy="49.9" r="1.8" fill="#6E92C4"/>
<circle cx="229.2" cy="48.5" r="1.8" fill="#6E92C4"/>
<circle cx="263.5" cy="47.9" r="1.8" fill="#6E92C4"/>
<circle cx="297.8" cy="47.7" r="1.8" fill="#6E92C4"/>
<circle cx="332.0" cy="49.1" r="1.8" fill="#6E92C4"/>
<circle cx="366.2" cy="58.0" r="1.8" fill="#6E92C4"/>
<circle cx="400.5" cy="71.7" r="1.8" fill="#6E92C4"/>
<circle cx="434.8" cy="75.9" r="1.8" fill="#6E92C4"/>
<circle cx="469.0" cy="64.7" r="1.8" fill="#6E92C4"/>
<circle cx="503.2" cy="68.5" r="1.8" fill="#6E92C4"/>
<circle cx="537.5" cy="97.7" r="1.8" fill="#6E92C4"/>
<circle cx="571.8" cy="94.7" r="1.8" fill="#6E92C4"/>
<circle cx="606.0" cy="108.9" r="1.8" fill="#6E92C4"/>
<circle cx="640.2" cy="99.5" r="1.8" fill="#6E92C4"/>
<circle cx="674.5" cy="101.7" r="1.8" fill="#6E92C4"/>
<circle cx="708.8" cy="107.2" r="1.8" fill="#6E92C4"/>
<circle cx="743.0" cy="139.1" r="1.8" fill="#6E92C4"/>
<circle cx="777.2" cy="131.3" r="1.8" fill="#6E92C4"/>
<circle cx="811.5" cy="115.9" r="1.8" fill="#6E92C4"/>
<circle cx="845.8" cy="127.5" r="1.8" fill="#6E92C4"/>
<circle cx="880.0" cy="66.6" r="1.8" fill="#6E92C4"/>
<path d="M58.0,47.6 L75.1,47.6 L92.2,47.6 L109.4,47.6 L126.5,47.6 L143.6,47.6 L160.8,47.8 L177.9,47.7 L195.0,47.7 L212.1,47.7 L229.2,47.7 L246.4,47.7 L263.5,47.7 L280.6,47.6 L297.8,47.6 L314.9,47.6 L332.0,47.6 L349.1,47.8 L366.2,48.2 L383.4,48.8 L400.5,49.1 L417.6,51.0 L434.8,53.6 L451.9,53.0 L469.0,52.7 L486.1,54.0 L503.2,56.9 L520.4,62.7 L537.5,73.1 L554.6,74.9 L571.8,71.5 L588.9,71.6 L606.0,69.7 L623.1,66.6 L640.2,63.0 L657.4,70.5 L674.5,66.6 L691.6,63.5 L708.8,71.0 L725.9,70.5 L743.0,83.8 L760.1,104.5 L777.2,78.3 L794.4,72.0 L811.5,72.0 L828.6,75.2 L845.8,76.3 L862.9,92.4 L880.0,52.6" fill="none" stroke="#E3C24A" stroke-width="2.0" stroke-linejoin="round"/>
<polygon points="58.0,45.27904761904763 59.8,47.619047619047635 58.0,49.95904761904764 56.2,47.619047619047635" fill="#E3C24A"/>
<polygon points="92.25,45.284631438936515 94.05,47.62463143893652 92.25,49.96463143893652 90.45,47.62463143893652" fill="#E3C24A"/>
<polygon points="126.5,45.29644224121458 128.3,47.63644224121458 126.5,49.976442241214585 124.7,47.63644224121458" fill="#E3C24A"/>
<polygon points="160.75,45.50219577198938 162.55,47.84219577198938 160.75,50.182195771989385 158.95,47.84219577198938" fill="#E3C24A"/>
<polygon points="195.0,45.37873780659268 196.8,47.718737806592685 195.0,50.05873780659269 193.2,47.718737806592685" fill="#E3C24A"/>
<polygon points="229.25,45.356110180446095 231.05,47.6961101804461 229.25,50.0361101804461 227.45,47.6961101804461" fill="#E3C24A"/>
<polygon points="263.5,45.31339834349497 265.3,47.65339834349497 263.5,49.993398343494974 261.7,47.65339834349497" fill="#E3C24A"/>
<polygon points="297.75,45.28334511393594 299.55,47.62334511393594 297.75,49.963345113935944 295.95,47.62334511393594" fill="#E3C24A"/>
<polygon points="332.0,45.287321027574095 333.8,47.6273210275741 332.0,49.9673210275741 330.2,47.6273210275741" fill="#E3C24A"/>
<polygon points="366.25,45.82301692099799 368.05,48.163016920998 366.25,50.503016920998 364.45,48.163016920998" fill="#E3C24A"/>
<polygon points="400.5,46.77214936347236 402.3,49.11214936347236 400.5,51.452149363472365 398.7,49.11214936347236" fill="#E3C24A"/>
<polygon points="434.75,51.28817332858132 436.55,53.628173328581326 434.75,55.96817332858133 432.95,53.628173328581326" fill="#E3C24A"/>
<polygon points="469.0,50.367398505437954 470.8,52.70739850543796 469.0,55.04739850543796 467.2,52.70739850543796" fill="#E3C24A"/>
<polygon points="503.24999999999994,54.60084025564649 505.04999999999995,56.94084025564649 503.24999999999994,59.280840255646496 501.44999999999993,56.94084025564649" fill="#E3C24A"/>
<polygon points="537.5,70.80765822319759 539.3,73.1476582231976 537.5,75.4876582231976 535.7,73.1476582231976" fill="#E3C24A"/>
<polygon points="571.75,69.16949410029821 573.55,71.50949410029821 571.75,73.84949410029822 569.95,71.50949410029821" fill="#E3C24A"/>
<polygon points="606.0,67.38541979381017 607.8,69.72541979381018 606.0,72.06541979381018 604.2,69.72541979381018" fill="#E3C24A"/>
<polygon points="640.25,60.66510253225055 642.05,63.005102532250554 640.25,65.34510253225055 638.45,63.005102532250554" fill="#E3C24A"/>
<polygon points="674.5,64.26169646853494 676.3,66.60169646853494 674.5,68.94169646853494 672.7,66.60169646853494" fill="#E3C24A"/>
<polygon points="708.75,68.67545759609769 710.55,71.01545759609769 708.75,73.3554575960977 706.95,71.01545759609769" fill="#E3C24A"/>
<polygon points="743.0,81.45547652744114 744.8,83.79547652744114 743.0,86.13547652744114 741.2,83.79547652744114" fill="#E3C24A"/>
<polygon points="777.25,75.94901154654369 779.05,78.28901154654369 777.25,80.6290115465437 775.45,78.28901154654369" fill="#E3C24A"/>
<polygon points="811.5,69.6858658840543 813.3,72.0258658840543 811.5,74.3658658840543 809.7,72.0258658840543" fill="#E3C24A"/>
<polygon points="845.75,73.93488970756532 847.55,76.27488970756532 845.75,78.61488970756533 843.95,76.27488970756532" fill="#E3C24A"/>
<polygon points="880.0,50.243355846859174 881.8,52.58335584685918 880.0,54.92335584685918 878.2,52.58335584685918" fill="#E3C24A"/>
<text x="58.0" y="248" font-family="JetBrains Mono,monospace" font-size="9.5" fill="#6F7C88" text-anchor="middle">emb</text>
<text x="75.1" y="248" font-family="JetBrains Mono,monospace" font-size="9.5" fill="#6F7C88" text-anchor="middle">0</text>
<text x="160.8" y="248" font-family="JetBrains Mono,monospace" font-size="9.5" fill="#6F7C88" text-anchor="middle">5</text>
<text x="246.4" y="248" font-family="JetBrains Mono,monospace" font-size="9.5" fill="#6F7C88" text-anchor="middle">10</text>
<text x="332.0" y="248" font-family="JetBrains Mono,monospace" font-size="9.5" fill="#6F7C88" text-anchor="middle">15</text>
<text x="417.6" y="248" font-family="JetBrains Mono,monospace" font-size="9.5" fill="#6F7C88" text-anchor="middle">20</text>
<text x="503.2" y="248" font-family="JetBrains Mono,monospace" font-size="9.5" fill="#6F7C88" text-anchor="middle">25</text>
<text x="588.9" y="248" font-family="JetBrains Mono,monospace" font-size="9.5" fill="#6F7C88" text-anchor="middle">30</text>
<text x="674.5" y="248" font-family="JetBrains Mono,monospace" font-size="9.5" fill="#6F7C88" text-anchor="middle">35</text>
<text x="760.1" y="248" font-family="JetBrains Mono,monospace" font-size="9.5" fill="#6F7C88" text-anchor="middle">40</text>
<text x="845.8" y="248" font-family="JetBrains Mono,monospace" font-size="9.5" fill="#6F7C88" text-anchor="middle">45</text>
<text x="880.0" y="248" font-family="JetBrains Mono,monospace" font-size="9.5" fill="#6F7C88" text-anchor="middle">47</text>
<text x="469" y="278" font-family="JetBrains Mono,monospace" font-size="9.5" letter-spacing="1" fill="#8893A0" text-anchor="middle">layer</text>
</svg>