<svg id="figWiC" viewBox="0 0 900 280" xmlns="http://www.w3.org/2000/svg">
<line x1="58" x2="880" y1="191.5" y2="191.5" stroke="#27323D" stroke-width="0.4"/>
<text x="53" y="195.0" font-family="JetBrains Mono,monospace" font-size="9.5" fill="#6F7C88" text-anchor="end">+0.25</text>
<line x1="58" x2="880" y1="138.4" y2="138.4" stroke="#27323D" stroke-width="0.4"/>
<text x="53" y="141.9" font-family="JetBrains Mono,monospace" font-size="9.5" fill="#6F7C88" text-anchor="end">+0.5</text>
<line x1="58" x2="880" y1="85.3" y2="85.3" stroke="#27323D" stroke-width="0.4"/>
<text x="53" y="88.8" font-family="JetBrains Mono,monospace" font-size="9.5" fill="#6F7C88" text-anchor="end">+0.75</text>
<line x1="58" x2="880" y1="32.2" y2="32.2" stroke="#27323D" stroke-width="0.4"/>
<text x="53" y="35.7" font-family="JetBrains Mono,monospace" font-size="9.5" fill="#6F7C88" text-anchor="end">+1</text>
<text x="11" y="131" font-family="JetBrains Mono,monospace" font-size="9.5" letter-spacing="1" fill="#8893A0" text-anchor="middle" transform="rotate(-90 11 131)">cosine similarity (target word)</text>
<polygon points="58.0,24.6 75.1,36.8 92.2,41.0 109.4,57.3 126.5,59.4 143.6,57.4 160.8,48.0 177.9,47.2 195.0,39.7 212.1,39.3 229.2,40.7 246.4,64.9 263.5,26.7 280.6,40.2 297.8,49.0 314.9,63.2 332.0,76.8 349.1,91.1 366.2,97.6 383.4,110.4 400.5,118.1 417.6,125.4 434.8,127.8 451.9,127.6 469.0,127.5 486.1,130.6 503.2,135.1 520.4,138.9 537.5,141.9 554.6,142.5 571.8,138.3 588.9,138.5 606.0,133.7 623.1,129.6 640.2,103.1 657.4,109.6 674.5,110.3 691.6,109.8 708.8,111.3 725.9,108.2 743.0,109.4 760.1,110.8 777.2,112.6 794.4,113.8 811.5,116.3 828.6,117.8 845.8,116.5 862.9,119.0 880.0,97.3 880.0,260.2 862.9,239.6 845.8,246.5 828.6,247.2 811.5,248.5 794.4,248.1 777.2,243.9 760.1,231.1 743.0,231.8 725.9,232.4 708.8,235.3 691.6,237.0 674.5,242.2 657.4,235.1 640.2,229.5 623.1,262.7 606.0,272.2 588.9,278.4 571.8,279.3 554.6,281.2 537.5,280.9 520.4,281.9 503.2,283.0 486.1,287.9 469.0,288.9 451.9,288.4 434.8,285.4 417.6,282.9 400.5,271.6 383.4,254.0 366.2,227.5 349.1,225.2 332.0,193.8 314.9,148.5 297.8,122.0 280.6,113.8 263.5,112.9 246.4,147.7 229.2,108.8 212.1,123.0 195.0,110.4 177.9,166.5 160.8,165.2 143.6,193.4 126.5,210.5 109.4,211.5 92.2,170.7 75.1,148.5 58.0,151.5" fill="#B98AD6" fill-opacity="0.12" stroke="none"/>
<path d="M58.0,88.0 L75.1,92.6 L92.2,105.8 L109.4,134.4 L126.5,134.9 L143.6,125.4 L160.8,106.6 L177.9,106.9 L195.0,75.0 L212.1,81.2 L229.2,74.8 L246.4,106.3 L263.5,69.8 L280.6,77.0 L297.8,85.5 L314.9,105.9 L332.0,135.3 L349.1,158.1 L366.2,162.6 L383.4,182.2 L400.5,194.9 L417.6,204.1 L434.8,206.6 L451.9,208.0 L469.0,208.2 L486.1,209.3 L503.2,209.0 L520.4,210.4 L537.5,211.4 L554.6,211.9 L571.8,208.8 L588.9,208.5 L606.0,203.0 L623.1,196.2 L640.2,166.3 L657.4,172.3 L674.5,176.2 L691.6,173.4 L708.8,173.3 L725.9,170.3 L743.0,170.6 L760.1,170.9 L777.2,178.2 L794.4,181.0 L811.5,182.4 L828.6,182.5 L845.8,181.5 L862.9,179.3 L880.0,178.7" fill="none" stroke="#B98AD6" stroke-width="1.8" stroke-linejoin="round"/>
<circle cx="58.0" cy="88.0" r="1.6" fill="#B98AD6"/>
<circle cx="92.2" cy="105.8" r="1.6" fill="#B98AD6"/>
<circle cx="126.5" cy="134.9" r="1.6" fill="#B98AD6"/>
<circle cx="160.8" cy="106.6" r="1.6" fill="#B98AD6"/>
<circle cx="195.0" cy="75.0" r="1.6" fill="#B98AD6"/>
<circle cx="229.2" cy="74.8" r="1.6" fill="#B98AD6"/>
<circle cx="263.5" cy="69.8" r="1.6" fill="#B98AD6"/>
<circle cx="297.8" cy="85.5" r="1.6" fill="#B98AD6"/>
<circle cx="332.0" cy="135.3" r="1.6" fill="#B98AD6"/>
<circle cx="366.2" cy="162.6" r="1.6" fill="#B98AD6"/>
<circle cx="400.5" cy="194.9" r="1.6" fill="#B98AD6"/>
<circle cx="434.8" cy="206.6" r="1.6" fill="#B98AD6"/>
<circle cx="469.0" cy="208.2" r="1.6" fill="#B98AD6"/>
<circle cx="503.2" cy="209.0" r="1.6" fill="#B98AD6"/>
<circle cx="537.5" cy="211.4" r="1.6" fill="#B98AD6"/>
<circle cx="571.8" cy="208.8" r="1.6" fill="#B98AD6"/>
<circle cx="606.0" cy="203.0" r="1.6" fill="#B98AD6"/>
<circle cx="640.2" cy="166.3" r="1.6" fill="#B98AD6"/>
<circle cx="674.5" cy="176.2" r="1.6" fill="#B98AD6"/>
<circle cx="708.8" cy="173.3" r="1.6" fill="#B98AD6"/>
<circle cx="743.0" cy="170.6" r="1.6" fill="#B98AD6"/>
<circle cx="777.2" cy="178.2" r="1.6" fill="#B98AD6"/>
<circle cx="811.5" cy="182.4" r="1.6" fill="#B98AD6"/>
<circle cx="845.8" cy="181.5" r="1.6" fill="#B98AD6"/>
<circle cx="880.0" cy="178.7" r="1.6" fill="#B98AD6"/>
<polygon points="58.0,19.8 75.1,30.3 92.2,31.3 109.4,45.6 126.5,45.1 143.6,45.2 160.8,38.9 177.9,40.1 195.0,37.2 212.1,34.6 229.2,35.6 246.4,52.5 263.5,23.2 280.6,33.0 297.8,38.2 314.9,47.9 332.0,57.5 349.1,68.1 366.2,69.2 383.4,75.5 400.5,81.9 417.6,89.7 434.8,93.1 451.9,96.0 469.0,97.9 486.1,101.8 503.2,106.4 520.4,107.5 537.5,110.9 554.6,110.1 571.8,105.0 588.9,104.5 606.0,98.3 623.1,95.4 640.2,80.3 657.4,85.1 674.5,83.3 691.6,83.8 708.8,84.7 725.9,82.9 743.0,84.7 760.1,85.7 777.2,84.9 794.4,85.9 811.5,87.6 828.6,90.1 845.8,89.8 862.9,92.6 880.0,67.9 880.0,239.8 862.9,206.2 845.8,212.6 828.6,213.0 811.5,213.4 794.4,213.2 777.2,209.6 760.1,198.0 743.0,198.0 725.9,197.0 708.8,200.1 691.6,200.4 674.5,206.3 657.4,202.4 640.2,199.0 623.1,229.6 606.0,239.8 588.9,247.8 571.8,246.0 554.6,247.5 537.5,244.9 520.4,244.5 503.2,247.0 486.1,248.5 469.0,246.6 451.9,243.4 434.8,237.8 417.6,234.8 400.5,225.5 383.4,209.6 366.2,186.9 349.1,191.1 332.0,165.8 314.9,133.6 297.8,111.3 280.6,107.0 263.5,106.5 246.4,135.9 229.2,100.7 212.1,114.3 195.0,98.2 177.9,150.7 160.8,150.7 143.6,178.1 126.5,189.6 109.4,187.0 92.2,154.1 75.1,138.9 58.0,149.3" fill="#4FB2C2" fill-opacity="0.12" stroke="none"/>
<path d="M58.0,84.6 L75.1,84.6 L92.2,92.7 L109.4,116.3 L126.5,117.4 L143.6,111.7 L160.8,94.8 L177.9,95.4 L195.0,67.7 L212.1,74.4 L229.2,68.1 L246.4,94.2 L263.5,64.9 L280.6,70.0 L297.8,74.7 L314.9,90.7 L332.0,111.7 L349.1,129.6 L366.2,128.1 L383.4,142.6 L400.5,153.7 L417.6,162.3 L434.8,165.5 L451.9,169.7 L469.0,172.3 L486.1,175.2 L503.2,176.7 L520.4,176.0 L537.5,177.9 L554.6,178.8 L571.8,175.5 L588.9,176.1 L606.0,169.0 L623.1,162.5 L640.2,139.6 L657.4,143.7 L674.5,144.8 L691.6,142.1 L708.8,142.4 L725.9,139.9 L743.0,141.4 L760.1,141.8 L777.2,147.2 L794.4,149.6 L811.5,150.5 L828.6,151.6 L845.8,151.2 L862.9,149.4 L880.0,153.9" fill="none" stroke="#4FB2C2" stroke-width="1.8" stroke-linejoin="round"/>
<rect x="56.4" y="83.0" width="3.2" height="3.2" fill="#4FB2C2"/>
<rect x="90.7" y="91.1" width="3.2" height="3.2" fill="#4FB2C2"/>
<rect x="124.9" y="115.8" width="3.2" height="3.2" fill="#4FB2C2"/>
<rect x="159.2" y="93.2" width="3.2" height="3.2" fill="#4FB2C2"/>
<rect x="193.4" y="66.1" width="3.2" height="3.2" fill="#4FB2C2"/>
<rect x="227.7" y="66.5" width="3.2" height="3.2" fill="#4FB2C2"/>
<rect x="261.9" y="63.3" width="3.2" height="3.2" fill="#4FB2C2"/>
<rect x="296.1" y="73.1" width="3.2" height="3.2" fill="#4FB2C2"/>
<rect x="330.4" y="110.1" width="3.2" height="3.2" fill="#4FB2C2"/>
<rect x="364.6" y="126.5" width="3.2" height="3.2" fill="#4FB2C2"/>
<rect x="398.9" y="152.1" width="3.2" height="3.2" fill="#4FB2C2"/>
<rect x="433.1" y="163.9" width="3.2" height="3.2" fill="#4FB2C2"/>
<rect x="467.4" y="170.7" width="3.2" height="3.2" fill="#4FB2C2"/>
<rect x="501.6" y="175.1" width="3.2" height="3.2" fill="#4FB2C2"/>
<rect x="535.9" y="176.3" width="3.2" height="3.2" fill="#4FB2C2"/>
<rect x="570.1" y="173.9" width="3.2" height="3.2" fill="#4FB2C2"/>
<rect x="604.4" y="167.4" width="3.2" height="3.2" fill="#4FB2C2"/>
<rect x="638.6" y="138.0" width="3.2" height="3.2" fill="#4FB2C2"/>
<rect x="672.9" y="143.2" width="3.2" height="3.2" fill="#4FB2C2"/>
<rect x="707.1" y="140.8" width="3.2" height="3.2" fill="#4FB2C2"/>
<rect x="741.4" y="139.8" width="3.2" height="3.2" fill="#4FB2C2"/>
<rect x="775.6" y="145.6" width="3.2" height="3.2" fill="#4FB2C2"/>
<rect x="809.9" y="148.9" width="3.2" height="3.2" fill="#4FB2C2"/>
<rect x="844.1" y="149.6" width="3.2" height="3.2" fill="#4FB2C2"/>
<rect x="878.4" y="152.3" width="3.2" height="3.2" fill="#4FB2C2"/>
<text x="58.0" y="248" font-family="JetBrains Mono,monospace" font-size="9.5" fill="#6F7C88" text-anchor="middle">emb</text>
<text x="75.1" y="248" font-family="JetBrains Mono,monospace" font-size="9.5" fill="#6F7C88" text-anchor="middle">0</text>
<text x="160.8" y="248" font-family="JetBrains Mono,monospace" font-size="9.5" fill="#6F7C88" text-anchor="middle">5</text>
<text x="246.4" y="248" font-family="JetBrains Mono,monospace" font-size="9.5" fill="#6F7C88" text-anchor="middle">10</text>
<text x="332.0" y="248" font-family="JetBrains Mono,monospace" font-size="9.5" fill="#6F7C88" text-anchor="middle">15</text>
<text x="417.6" y="248" font-family="JetBrains Mono,monospace" font-size="9.5" fill="#6F7C88" text-anchor="middle">20</text>
<text x="503.2" y="248" font-family="JetBrains Mono,monospace" font-size="9.5" fill="#6F7C88" text-anchor="middle">25</text>
<text x="588.9" y="248" font-family="JetBrains Mono,monospace" font-size="9.5" fill="#6F7C88" text-anchor="middle">30</text>
<text x="674.5" y="248" font-family="JetBrains Mono,monospace" font-size="9.5" fill="#6F7C88" text-anchor="middle">35</text>
<text x="760.1" y="248" font-family="JetBrains Mono,monospace" font-size="9.5" fill="#6F7C88" text-anchor="middle">40</text>
<text x="845.8" y="248" font-family="JetBrains Mono,monospace" font-size="9.5" fill="#6F7C88" text-anchor="middle">45</text>
<text x="880.0" y="248" font-family="JetBrains Mono,monospace" font-size="9.5" fill="#6F7C88" text-anchor="middle">47</text>
<text x="469" y="278" font-family="JetBrains Mono,monospace" font-size="9.5" letter-spacing="1" fill="#8893A0" text-anchor="middle">layer</text>
</svg>