<svg id="spec_novel" viewBox="0 0 460 581" xmlns="http://www.w3.org/2000/svg">
<rect x="42" y="256.3" width="402.0" height="107.8" fill="#6FCBD8" fill-opacity="0.06" stroke="none"/>
<text x="39" y="259.3" font-family="JetBrains Mono,monospace" font-size="7.5" fill="#6F7C88" text-anchor="end">L17</text>
<text x="39" y="364.1" font-family="JetBrains Mono,monospace" font-size="7.5" fill="#6F7C88" text-anchor="end">L27</text>
<rect x="42.0" y="80.0" width="36.55" height="9.80" fill="#141d26" stroke="none"/>
<rect x="78.5" y="80.0" width="36.55" height="9.80" fill="#141d26" stroke="none"/>
<rect x="115.1" y="80.0" width="36.55" height="9.80" fill="#141d26" stroke="none"/>
<rect x="151.6" y="80.0" width="36.55" height="9.80" fill="#141d26" stroke="none"/>
<rect x="188.2" y="80.0" width="36.55" height="9.80" fill="#141d26" stroke="none"/>
<rect x="224.7" y="80.0" width="36.55" height="9.80" fill="#e3c24a" stroke="none"/>
<rect x="261.3" y="80.0" width="36.55" height="9.80" fill="#141d26" stroke="none"/>
<rect x="297.8" y="80.0" width="36.55" height="9.80" fill="#141d26" stroke="none"/>
<rect x="334.4" y="80.0" width="36.55" height="9.80" fill="#141d26" stroke="none"/>
<rect x="370.9" y="80.0" width="36.55" height="9.80" fill="#141d26" stroke="none"/>
<rect x="407.5" y="80.0" width="36.55" height="9.80" fill="#141d26" stroke="none"/>
<rect x="42.0" y="89.8" width="36.55" height="9.80" fill="#141d26" stroke="none"/>
<rect x="78.5" y="89.8" width="36.55" height="9.80" fill="#141d26" stroke="none"/>
<rect x="115.1" y="89.8" width="36.55" height="9.80" fill="#141d26" stroke="none"/>
<rect x="151.6" y="89.8" width="36.55" height="9.80" fill="#141d26" stroke="none"/>
<rect x="188.2" y="89.8" width="36.55" height="9.80" fill="#141d26" stroke="none"/>
<rect x="224.7" y="89.8" width="36.55" height="9.80" fill="#e3c24a" stroke="none"/>
<rect x="261.3" y="89.8" width="36.55" height="9.80" fill="#15232e" stroke="none"/>
<rect x="297.8" y="89.8" width="36.55" height="9.80" fill="#141d26" stroke="none"/>
<rect x="334.4" y="89.8" width="36.55" height="9.80" fill="#141d26" stroke="none"/>
<rect x="370.9" y="89.8" width="36.55" height="9.80" fill="#141d26" stroke="none"/>
<rect x="407.5" y="89.8" width="36.55" height="9.80" fill="#141d26" stroke="none"/>
<rect x="42.0" y="99.6" width="36.55" height="9.80" fill="#141d26" stroke="none"/>
<rect x="78.5" y="99.6" width="36.55" height="9.80" fill="#141d26" stroke="none"/>
<rect x="115.1" y="99.6" width="36.55" height="9.80" fill="#141d26" stroke="none"/>
<rect x="151.6" y="99.6" width="36.55" height="9.80" fill="#141d26" stroke="none"/>
<rect x="188.2" y="99.6" width="36.55" height="9.80" fill="#141d26" stroke="none"/>
<rect x="224.7" y="99.6" width="36.55" height="9.80" fill="#e3c24a" stroke="none"/>
<rect x="261.3" y="99.6" width="36.55" height="9.80" fill="#15232f" stroke="none"/>
<rect x="297.8" y="99.6" width="36.55" height="9.80" fill="#141d26" stroke="none"/>
<rect x="334.4" y="99.6" width="36.55" height="9.80" fill="#141d26" stroke="none"/>
<rect x="370.9" y="99.6" width="36.55" height="9.80" fill="#141d26" stroke="none"/>
<rect x="407.5" y="99.6" width="36.55" height="9.80" fill="#141d26" stroke="none"/>
<rect x="42.0" y="109.4" width="36.55" height="9.80" fill="#141d26" stroke="none"/>
<rect x="78.5" y="109.4" width="36.55" height="9.80" fill="#141d26" stroke="none"/>
<rect x="115.1" y="109.4" width="36.55" height="9.80" fill="#141d26" stroke="none"/>
<rect x="151.6" y="109.4" width="36.55" height="9.80" fill="#141d26" stroke="none"/>
<rect x="188.2" y="109.4" width="36.55" height="9.80" fill="#141d26" stroke="none"/>
<rect x="224.7" y="109.4" width="36.55" height="9.80" fill="#e3c24a" stroke="none"/>
<rect x="261.3" y="109.4" width="36.55" height="9.80" fill="#182f3d" stroke="none"/>
<rect x="297.8" y="109.4" width="36.55" height="9.80" fill="#141d26" stroke="none"/>
<rect x="334.4" y="109.4" width="36.55" height="9.80" fill="#141e27" stroke="none"/>
<rect x="370.9" y="109.4" width="36.55" height="9.80" fill="#141d26" stroke="none"/>
<rect x="407.5" y="109.4" width="36.55" height="9.80" fill="#141d26" stroke="none"/>
<rect x="42.0" y="119.2" width="36.55" height="9.80" fill="#141d26" stroke="none"/>
<rect x="78.5" y="119.2" width="36.55" height="9.80" fill="#141d26" stroke="none"/>
<rect x="115.1" y="119.2" width="36.55" height="9.80" fill="#141d26" stroke="none"/>
<rect x="151.6" y="119.2" width="36.55" height="9.80" fill="#141d26" stroke="none"/>
<rect x="188.2" y="119.2" width="36.55" height="9.80" fill="#141d26" stroke="none"/>
<rect x="224.7" y="119.2" width="36.55" height="9.80" fill="#e3c24a" stroke="none"/>
<rect x="261.3" y="119.2" width="36.55" height="9.80" fill="#162834" stroke="none"/>
<rect x="297.8" y="119.2" width="36.55" height="9.80" fill="#141d27" stroke="none"/>
<rect x="334.4" y="119.2" width="36.55" height="9.80" fill="#141e27" stroke="none"/>
<rect x="370.9" y="119.2" width="36.55" height="9.80" fill="#141d26" stroke="none"/>
<rect x="407.5" y="119.2" width="36.55" height="9.80" fill="#141d26" stroke="none"/>
<rect x="42.0" y="129.0" width="36.55" height="9.80" fill="#141d26" stroke="none"/>
<rect x="78.5" y="129.0" width="36.55" height="9.80" fill="#141d26" stroke="none"/>
<rect x="115.1" y="129.0" width="36.55" height="9.80" fill="#141d26" stroke="none"/>
<rect x="151.6" y="129.0" width="36.55" height="9.80" fill="#141d26" stroke="none"/>
<rect x="188.2" y="129.0" width="36.55" height="9.80" fill="#141d26" stroke="none"/>
<rect x="224.7" y="129.0" width="36.55" height="9.80" fill="#e3c24a" stroke="none"/>
<rect x="261.3" y="129.0" width="36.55" height="9.80" fill="#152430" stroke="none"/>
<rect x="297.8" y="129.0" width="36.55" height="9.80" fill="#141e27" stroke="none"/>
<rect x="334.4" y="129.0" width="36.55" height="9.80" fill="#141e27" stroke="none"/>
<rect x="370.9" y="129.0" width="36.55" height="9.80" fill="#141d26" stroke="none"/>
<rect x="407.5" y="129.0" width="36.55" height="9.80" fill="#141d26" stroke="none"/>
<rect x="42.0" y="138.8" width="36.55" height="9.80" fill="#141d26" stroke="none"/>
<rect x="78.5" y="138.8" width="36.55" height="9.80" fill="#141d26" stroke="none"/>
<rect x="115.1" y="138.8" width="36.55" height="9.80" fill="#141d26" stroke="none"/>
<rect x="151.6" y="138.8" width="36.55" height="9.80" fill="#141d26" stroke="none"/>
<rect x="188.2" y="138.8" width="36.55" height="9.80" fill="#141d26" stroke="none"/>
<rect x="224.7" y="138.8" width="36.55" height="9.80" fill="#e3c24a" stroke="none"/>
<rect x="261.3" y="138.8" width="36.55" height="9.80" fill="#15232d" stroke="none"/>
<rect x="297.8" y="138.8" width="36.55" height="9.80" fill="#141d26" stroke="none"/>
<rect x="334.4" y="138.8" width="36.55" height="9.80" fill="#141d27" stroke="none"/>
<rect x="370.9" y="138.8" width="36.55" height="9.80" fill="#141d26" stroke="none"/>
<rect x="407.5" y="138.8" width="36.55" height="9.80" fill="#141d26" stroke="none"/>
<rect x="42.0" y="148.6" width="36.55" height="9.80" fill="#141d26" stroke="none"/>
<rect x="78.5" y="148.6" width="36.55" height="9.80" fill="#141d26" stroke="none"/>
<rect x="115.1" y="148.6" width="36.55" height="9.80" fill="#141d26" stroke="none"/>
<rect x="151.6" y="148.6" width="36.55" height="9.80" fill="#141d26" stroke="none"/>
<rect x="188.2" y="148.6" width="36.55" height="9.80" fill="#141d26" stroke="none"/>
<rect x="224.7" y="148.6" width="36.55" height="9.80" fill="#e3c24a" stroke="none"/>
<rect x="261.3" y="148.6" width="36.55" height="9.80" fill="#15212b" stroke="none"/>
<rect x="297.8" y="148.6" width="36.55" height="9.80" fill="#141d26" stroke="none"/>
<rect x="334.4" y="148.6" width="36.55" height="9.80" fill="#141d26" stroke="none"/>
<rect x="370.9" y="148.6" width="36.55" height="9.80" fill="#141d26" stroke="none"/>
<rect x="407.5" y="148.6" width="36.55" height="9.80" fill="#141d26" stroke="none"/>
<rect x="42.0" y="158.4" width="36.55" height="9.80" fill="#141d26" stroke="none"/>
<rect x="78.5" y="158.4" width="36.55" height="9.80" fill="#141d26" stroke="none"/>
<rect x="115.1" y="158.4" width="36.55" height="9.80" fill="#141d26" stroke="none"/>
<rect x="151.6" y="158.4" width="36.55" height="9.80" fill="#141d26" stroke="none"/>
<rect x="188.2" y="158.4" width="36.55" height="9.80" fill="#141d26" stroke="none"/>
<rect x="224.7" y="158.4" width="36.55" height="9.80" fill="#e3c24a" stroke="none"/>
<rect x="261.3" y="158.4" width="36.55" height="9.80" fill="#141f29" stroke="none"/>
<rect x="297.8" y="158.4" width="36.55" height="9.80" fill="#141d26" stroke="none"/>
<rect x="334.4" y="158.4" width="36.55" height="9.80" fill="#141d26" stroke="none"/>
<rect x="370.9" y="158.4" width="36.55" height="9.80" fill="#141d26" stroke="none"/>
<rect x="407.5" y="158.4" width="36.55" height="9.80" fill="#141d26" stroke="none"/>
<rect x="42.0" y="168.2" width="36.55" height="9.80" fill="#141d26" stroke="none"/>
<rect x="78.5" y="168.2" width="36.55" height="9.80" fill="#141d26" stroke="none"/>
<rect x="115.1" y="168.2" width="36.55" height="9.80" fill="#141d26" stroke="none"/>
<rect x="151.6" y="168.2" width="36.55" height="9.80" fill="#141d26" stroke="none"/>
<rect x="188.2" y="168.2" width="36.55" height="9.80" fill="#141d26" stroke="none"/>
<rect x="224.7" y="168.2" width="36.55" height="9.80" fill="#e3c24a" stroke="none"/>
<rect x="261.3" y="168.2" width="36.55" height="9.80" fill="#15212c" stroke="none"/>
<rect x="297.8" y="168.2" width="36.55" height="9.80" fill="#141d26" stroke="none"/>
<rect x="334.4" y="168.2" width="36.55" height="9.80" fill="#141d26" stroke="none"/>
<rect x="370.9" y="168.2" width="36.55" height="9.80" fill="#141d26" stroke="none"/>
<rect x="407.5" y="168.2" width="36.55" height="9.80" fill="#141d26" stroke="none"/>
<rect x="42.0" y="178.0" width="36.55" height="9.80" fill="#141d26" stroke="none"/>
<rect x="78.5" y="178.0" width="36.55" height="9.80" fill="#141d26" stroke="none"/>
<rect x="115.1" y="178.0" width="36.55" height="9.80" fill="#141d26" stroke="none"/>
<rect x="151.6" y="178.0" width="36.55" height="9.80" fill="#141d26" stroke="none"/>
<rect x="188.2" y="178.0" width="36.55" height="9.80" fill="#141d26" stroke="none"/>
<rect x="224.7" y="178.0" width="36.55" height="9.80" fill="#e3c24a" stroke="none"/>
<rect x="261.3" y="178.0" width="36.55" height="9.80" fill="#15222d" stroke="none"/>
<rect x="297.8" y="178.0" width="36.55" height="9.80" fill="#141d26" stroke="none"/>
<rect x="334.4" y="178.0" width="36.55" height="9.80" fill="#141d26" stroke="none"/>
<rect x="370.9" y="178.0" width="36.55" height="9.80" fill="#141d26" stroke="none"/>
<rect x="407.5" y="178.0" width="36.55" height="9.80" fill="#141d26" stroke="none"/>
<rect x="42.0" y="187.8" width="36.55" height="9.80" fill="#141d26" stroke="none"/>
<rect x="78.5" y="187.8" width="36.55" height="9.80" fill="#141d26" stroke="none"/>
<rect x="115.1" y="187.8" width="36.55" height="9.80" fill="#141d26" stroke="none"/>
<rect x="151.6" y="187.8" width="36.55" height="9.80" fill="#141d26" stroke="none"/>
<rect x="188.2" y="187.8" width="36.55" height="9.80" fill="#141d26" stroke="none"/>
<rect x="224.7" y="187.8" width="36.55" height="9.80" fill="#e3c24a" stroke="none"/>
<rect x="261.3" y="187.8" width="36.55" height="9.80" fill="#193343" stroke="none"/>
<rect x="297.8" y="187.8" width="36.55" height="9.80" fill="#141d26" stroke="none"/>
<rect x="334.4" y="187.8" width="36.55" height="9.80" fill="#141d26" stroke="none"/>
<rect x="370.9" y="187.8" width="36.55" height="9.80" fill="#141d26" stroke="none"/>
<rect x="407.5" y="187.8" width="36.55" height="9.80" fill="#141d26" stroke="none"/>
<rect x="42.0" y="197.6" width="36.55" height="9.80" fill="#141d26" stroke="none"/>
<rect x="78.5" y="197.6" width="36.55" height="9.80" fill="#141d26" stroke="none"/>
<rect x="115.1" y="197.6" width="36.55" height="9.80" fill="#141d26" stroke="none"/>
<rect x="151.6" y="197.6" width="36.55" height="9.80" fill="#141d26" stroke="none"/>
<rect x="188.2" y="197.6" width="36.55" height="9.80" fill="#141d26" stroke="none"/>
<rect x="224.7" y="197.6" width="36.55" height="9.80" fill="#e3c24a" stroke="none"/>
<rect x="261.3" y="197.6" width="36.55" height="9.80" fill="#141e28" stroke="none"/>
<rect x="297.8" y="197.6" width="36.55" height="9.80" fill="#141d26" stroke="none"/>
<rect x="334.4" y="197.6" width="36.55" height="9.80" fill="#141d26" stroke="none"/>
<rect x="370.9" y="197.6" width="36.55" height="9.80" fill="#141d26" stroke="none"/>
<rect x="407.5" y="197.6" width="36.55" height="9.80" fill="#141d26" stroke="none"/>
<rect x="42.0" y="207.3" width="36.55" height="9.80" fill="#141d26" stroke="none"/>
<rect x="78.5" y="207.3" width="36.55" height="9.80" fill="#141d26" stroke="none"/>
<rect x="115.1" y="207.3" width="36.55" height="9.80" fill="#141d26" stroke="none"/>
<rect x="151.6" y="207.3" width="36.55" height="9.80" fill="#141d26" stroke="none"/>
<rect x="188.2" y="207.3" width="36.55" height="9.80" fill="#141d26" stroke="none"/>
<rect x="224.7" y="207.3" width="36.55" height="9.80" fill="#e3c24a" stroke="none"/>
<rect x="261.3" y="207.3" width="36.55" height="9.80" fill="#141f29" stroke="none"/>
<rect x="297.8" y="207.3" width="36.55" height="9.80" fill="#141d26" stroke="none"/>
<rect x="334.4" y="207.3" width="36.55" height="9.80" fill="#141d26" stroke="none"/>
<rect x="370.9" y="207.3" width="36.55" height="9.80" fill="#141d26" stroke="none"/>
<rect x="407.5" y="207.3" width="36.55" height="9.80" fill="#141d26" stroke="none"/>
<rect x="42.0" y="217.1" width="36.55" height="9.80" fill="#141d26" stroke="none"/>
<rect x="78.5" y="217.1" width="36.55" height="9.80" fill="#141d26" stroke="none"/>
<rect x="115.1" y="217.1" width="36.55" height="9.80" fill="#141d26" stroke="none"/>
<rect x="151.6" y="217.1" width="36.55" height="9.80" fill="#141d26" stroke="none"/>
<rect x="188.2" y="217.1" width="36.55" height="9.80" fill="#141d26" stroke="none"/>
<rect x="224.7" y="217.1" width="36.55" height="9.80" fill="#e3c24a" stroke="none"/>
<rect x="261.3" y="217.1" width="36.55" height="9.80" fill="#15232e" stroke="none"/>
<rect x="297.8" y="217.1" width="36.55" height="9.80" fill="#141d26" stroke="none"/>
<rect x="334.4" y="217.1" width="36.55" height="9.80" fill="#141d26" stroke="none"/>
<rect x="370.9" y="217.1" width="36.55" height="9.80" fill="#141d26" stroke="none"/>
<rect x="407.5" y="217.1" width="36.55" height="9.80" fill="#141d26" stroke="none"/>
<rect x="42.0" y="226.9" width="36.55" height="9.80" fill="#141d26" stroke="none"/>
<rect x="78.5" y="226.9" width="36.55" height="9.80" fill="#141d26" stroke="none"/>
<rect x="115.1" y="226.9" width="36.55" height="9.80" fill="#141d26" stroke="none"/>
<rect x="151.6" y="226.9" width="36.55" height="9.80" fill="#141d26" stroke="none"/>
<rect x="188.2" y="226.9" width="36.55" height="9.80" fill="#141d26" stroke="none"/>
<rect x="224.7" y="226.9" width="36.55" height="9.80" fill="#e3c24a" stroke="none"/>
<rect x="261.3" y="226.9" width="36.55" height="9.80" fill="#15232e" stroke="none"/>
<rect x="297.8" y="226.9" width="36.55" height="9.80" fill="#141e27" stroke="none"/>
<rect x="334.4" y="226.9" width="36.55" height="9.80" fill="#141d26" stroke="none"/>
<rect x="370.9" y="226.9" width="36.55" height="9.80" fill="#141d26" stroke="none"/>
<rect x="407.5" y="226.9" width="36.55" height="9.80" fill="#141d26" stroke="none"/>
<rect x="42.0" y="236.7" width="36.55" height="9.80" fill="#141d26" stroke="none"/>
<rect x="78.5" y="236.7" width="36.55" height="9.80" fill="#141d26" stroke="none"/>
<rect x="115.1" y="236.7" width="36.55" height="9.80" fill="#141d26" stroke="none"/>
<rect x="151.6" y="236.7" width="36.55" height="9.80" fill="#141d26" stroke="none"/>
<rect x="188.2" y="236.7" width="36.55" height="9.80" fill="#141d26" stroke="none"/>
<rect x="224.7" y="236.7" width="36.55" height="9.80" fill="#e3c24a" stroke="none"/>
<rect x="261.3" y="236.7" width="36.55" height="9.80" fill="#15232e" stroke="none"/>
<rect x="297.8" y="236.7" width="36.55" height="9.80" fill="#14202a" stroke="none"/>
<rect x="334.4" y="236.7" width="36.55" height="9.80" fill="#141d26" stroke="none"/>
<rect x="370.9" y="236.7" width="36.55" height="9.80" fill="#141d26" stroke="none"/>
<rect x="407.5" y="236.7" width="36.55" height="9.80" fill="#141d26" stroke="none"/>
<rect x="42.0" y="246.5" width="36.55" height="9.80" fill="#141d26" stroke="none"/>
<rect x="78.5" y="246.5" width="36.55" height="9.80" fill="#141d26" stroke="none"/>
<rect x="115.1" y="246.5" width="36.55" height="9.80" fill="#141d26" stroke="none"/>
<rect x="151.6" y="246.5" width="36.55" height="9.80" fill="#141d26" stroke="none"/>
<rect x="188.2" y="246.5" width="36.55" height="9.80" fill="#141d26" stroke="none"/>
<rect x="224.7" y="246.5" width="36.55" height="9.80" fill="#e3c24a" stroke="none"/>
<rect x="261.3" y="246.5" width="36.55" height="9.80" fill="#15242f" stroke="none"/>
<rect x="297.8" y="246.5" width="36.55" height="9.80" fill="#15222d" stroke="none"/>
<rect x="334.4" y="246.5" width="36.55" height="9.80" fill="#141d27" stroke="none"/>
<rect x="370.9" y="246.5" width="36.55" height="9.80" fill="#141d26" stroke="none"/>
<rect x="407.5" y="246.5" width="36.55" height="9.80" fill="#141d27" stroke="none"/>
<rect x="42.0" y="256.3" width="36.55" height="9.80" fill="#141d26" stroke="none"/>
<rect x="78.5" y="256.3" width="36.55" height="9.80" fill="#141d26" stroke="none"/>
<rect x="115.1" y="256.3" width="36.55" height="9.80" fill="#141d26" stroke="none"/>
<rect x="151.6" y="256.3" width="36.55" height="9.80" fill="#141d26" stroke="none"/>
<rect x="188.2" y="256.3" width="36.55" height="9.80" fill="#141d26" stroke="none"/>
<rect x="224.7" y="256.3" width="36.55" height="9.80" fill="#e3c24a" stroke="none"/>
<rect x="261.3" y="256.3" width="36.55" height="9.80" fill="#162733" stroke="none"/>
<rect x="297.8" y="256.3" width="36.55" height="9.80" fill="#15222c" stroke="none"/>
<rect x="334.4" y="256.3" width="36.55" height="9.80" fill="#141e27" stroke="none"/>
<rect x="370.9" y="256.3" width="36.55" height="9.80" fill="#141d26" stroke="none"/>
<rect x="407.5" y="256.3" width="36.55" height="9.80" fill="#141d26" stroke="none"/>
<rect x="42.0" y="266.1" width="36.55" height="9.80" fill="#141d26" stroke="none"/>
<rect x="78.5" y="266.1" width="36.55" height="9.80" fill="#141d26" stroke="none"/>
<rect x="115.1" y="266.1" width="36.55" height="9.80" fill="#141d26" stroke="none"/>
<rect x="151.6" y="266.1" width="36.55" height="9.80" fill="#141d26" stroke="none"/>
<rect x="188.2" y="266.1" width="36.55" height="9.80" fill="#141d26" stroke="none"/>
<rect x="224.7" y="266.1" width="36.55" height="9.80" fill="#e3c24a" stroke="none"/>
<rect x="261.3" y="266.1" width="36.55" height="9.80" fill="#182d3b" stroke="none"/>
<rect x="297.8" y="266.1" width="36.55" height="9.80" fill="#162632" stroke="none"/>
<rect x="334.4" y="266.1" width="36.55" height="9.80" fill="#141e27" stroke="none"/>
<rect x="370.9" y="266.1" width="36.55" height="9.80" fill="#141d26" stroke="none"/>
<rect x="407.5" y="266.1" width="36.55" height="9.80" fill="#141f28" stroke="none"/>
<rect x="42.0" y="275.9" width="36.55" height="9.80" fill="#141d26" stroke="none"/>
<rect x="78.5" y="275.9" width="36.55" height="9.80" fill="#141d26" stroke="none"/>
<rect x="115.1" y="275.9" width="36.55" height="9.80" fill="#141d26" stroke="none"/>
<rect x="151.6" y="275.9" width="36.55" height="9.80" fill="#141d26" stroke="none"/>
<rect x="188.2" y="275.9" width="36.55" height="9.80" fill="#141d26" stroke="none"/>
<rect x="224.7" y="275.9" width="36.55" height="9.80" fill="#e3c24a" stroke="none"/>
<rect x="261.3" y="275.9" width="36.55" height="9.80" fill="#1a3546" stroke="none"/>
<rect x="297.8" y="275.9" width="36.55" height="9.80" fill="#182f3e" stroke="none"/>
<rect x="334.4" y="275.9" width="36.55" height="9.80" fill="#141e28" stroke="none"/>
<rect x="370.9" y="275.9" width="36.55" height="9.80" fill="#141d26" stroke="none"/>
<rect x="407.5" y="275.9" width="36.55" height="9.80" fill="#14202a" stroke="none"/>
<rect x="42.0" y="285.7" width="36.55" height="9.80" fill="#141d26" stroke="none"/>
<rect x="78.5" y="285.7" width="36.55" height="9.80" fill="#141d26" stroke="none"/>
<rect x="115.1" y="285.7" width="36.55" height="9.80" fill="#141d26" stroke="none"/>
<rect x="151.6" y="285.7" width="36.55" height="9.80" fill="#141d26" stroke="none"/>
<rect x="188.2" y="285.7" width="36.55" height="9.80" fill="#141d26" stroke="none"/>
<rect x="224.7" y="285.7" width="36.55" height="9.80" fill="#e3c24a" stroke="none"/>
<rect x="261.3" y="285.7" width="36.55" height="9.80" fill="#1b394b" stroke="none"/>
<rect x="297.8" y="285.7" width="36.55" height="9.80" fill="#1d4256" stroke="none"/>
<rect x="334.4" y="285.7" width="36.55" height="9.80" fill="#141f28" stroke="none"/>
<rect x="370.9" y="285.7" width="36.55" height="9.80" fill="#141e27" stroke="none"/>
<rect x="407.5" y="285.7" width="36.55" height="9.80" fill="#162733" stroke="none"/>
<rect x="42.0" y="295.5" width="36.55" height="9.80" fill="#141d26" stroke="none"/>
<rect x="78.5" y="295.5" width="36.55" height="9.80" fill="#141d26" stroke="none"/>
<rect x="115.1" y="295.5" width="36.55" height="9.80" fill="#141d26" stroke="none"/>
<rect x="151.6" y="295.5" width="36.55" height="9.80" fill="#141d26" stroke="none"/>
<rect x="188.2" y="295.5" width="36.55" height="9.80" fill="#141d26" stroke="none"/>
<rect x="224.7" y="295.5" width="36.55" height="9.80" fill="#e3c24a" stroke="none"/>
<rect x="261.3" y="295.5" width="36.55" height="9.80" fill="#1b3b4d" stroke="none"/>
<rect x="297.8" y="295.5" width="36.55" height="9.80" fill="#215b73" stroke="none"/>
<rect x="334.4" y="295.5" width="36.55" height="9.80" fill="#14202a" stroke="none"/>
<rect x="370.9" y="295.5" width="36.55" height="9.80" fill="#141f29" stroke="none"/>
<rect x="407.5" y="295.5" width="36.55" height="9.80" fill="#193140" stroke="none"/>
<rect x="42.0" y="305.3" width="36.55" height="9.80" fill="#141d26" stroke="none"/>
<rect x="78.5" y="305.3" width="36.55" height="9.80" fill="#141d26" stroke="none"/>
<rect x="115.1" y="305.3" width="36.55" height="9.80" fill="#141d26" stroke="none"/>
<rect x="151.6" y="305.3" width="36.55" height="9.80" fill="#141d26" stroke="none"/>
<rect x="188.2" y="305.3" width="36.55" height="9.80" fill="#141d26" stroke="none"/>
<rect x="224.7" y="305.3" width="36.55" height="9.80" fill="#e3c24a" stroke="none"/>
<rect x="261.3" y="305.3" width="36.55" height="9.80" fill="#1b3a4c" stroke="none"/>
<rect x="297.8" y="305.3" width="36.55" height="9.80" fill="#236781" stroke="none"/>
<rect x="334.4" y="305.3" width="36.55" height="9.80" fill="#14202a" stroke="none"/>
<rect x="370.9" y="305.3" width="36.55" height="9.80" fill="#15212b" stroke="none"/>
<rect x="407.5" y="305.3" width="36.55" height="9.80" fill="#1b394b" stroke="none"/>
<rect x="42.0" y="315.1" width="36.55" height="9.80" fill="#141d26" stroke="none"/>
<rect x="78.5" y="315.1" width="36.55" height="9.80" fill="#141d26" stroke="none"/>
<rect x="115.1" y="315.1" width="36.55" height="9.80" fill="#141d26" stroke="none"/>
<rect x="151.6" y="315.1" width="36.55" height="9.80" fill="#141d26" stroke="none"/>
<rect x="188.2" y="315.1" width="36.55" height="9.80" fill="#141d26" stroke="none"/>
<rect x="224.7" y="315.1" width="36.55" height="9.80" fill="#e3c24a" stroke="none"/>
<rect x="261.3" y="315.1" width="36.55" height="9.80" fill="#1b394b" stroke="none"/>
<rect x="297.8" y="315.1" width="36.55" height="9.80" fill="#215e77" stroke="none"/>
<rect x="334.4" y="315.1" width="36.55" height="9.80" fill="#14202a" stroke="none"/>
<rect x="370.9" y="315.1" width="36.55" height="9.80" fill="#15212b" stroke="none"/>
<rect x="407.5" y="315.1" width="36.55" height="9.80" fill="#1b3c4e" stroke="none"/>
<rect x="42.0" y="324.9" width="36.55" height="9.80" fill="#141d26" stroke="none"/>
<rect x="78.5" y="324.9" width="36.55" height="9.80" fill="#141d26" stroke="none"/>
<rect x="115.1" y="324.9" width="36.55" height="9.80" fill="#141d26" stroke="none"/>
<rect x="151.6" y="324.9" width="36.55" height="9.80" fill="#141d26" stroke="none"/>
<rect x="188.2" y="324.9" width="36.55" height="9.80" fill="#141d26" stroke="none"/>
<rect x="224.7" y="324.9" width="36.55" height="9.80" fill="#e3c24a" stroke="none"/>
<rect x="261.3" y="324.9" width="36.55" height="9.80" fill="#1a3849" stroke="none"/>
<rect x="297.8" y="324.9" width="36.55" height="9.80" fill="#20546c" stroke="none"/>
<rect x="334.4" y="324.9" width="36.55" height="9.80" fill="#15222c" stroke="none"/>
<rect x="370.9" y="324.9" width="36.55" height="9.80" fill="#15212c" stroke="none"/>
<rect x="407.5" y="324.9" width="36.55" height="9.80" fill="#1c3e52" stroke="none"/>
<rect x="42.0" y="334.7" width="36.55" height="9.80" fill="#141d26" stroke="none"/>
<rect x="78.5" y="334.7" width="36.55" height="9.80" fill="#141d26" stroke="none"/>
<rect x="115.1" y="334.7" width="36.55" height="9.80" fill="#141d26" stroke="none"/>
<rect x="151.6" y="334.7" width="36.55" height="9.80" fill="#141d26" stroke="none"/>
<rect x="188.2" y="334.7" width="36.55" height="9.80" fill="#141d26" stroke="none"/>
<rect x="224.7" y="334.7" width="36.55" height="9.80" fill="#e3c24a" stroke="none"/>
<rect x="261.3" y="334.7" width="36.55" height="9.80" fill="#1b3a4b" stroke="none"/>
<rect x="297.8" y="334.7" width="36.55" height="9.80" fill="#1d4358" stroke="none"/>
<rect x="334.4" y="334.7" width="36.55" height="9.80" fill="#15232e" stroke="none"/>
<rect x="370.9" y="334.7" width="36.55" height="9.80" fill="#15232e" stroke="none"/>
<rect x="407.5" y="334.7" width="36.55" height="9.80" fill="#1d4357" stroke="none"/>
<rect x="42.0" y="344.5" width="36.55" height="9.80" fill="#141d26" stroke="none"/>
<rect x="78.5" y="344.5" width="36.55" height="9.80" fill="#141d26" stroke="none"/>
<rect x="115.1" y="344.5" width="36.55" height="9.80" fill="#141d26" stroke="none"/>
<rect x="151.6" y="344.5" width="36.55" height="9.80" fill="#141d26" stroke="none"/>
<rect x="188.2" y="344.5" width="36.55" height="9.80" fill="#141d26" stroke="none"/>
<rect x="224.7" y="344.5" width="36.55" height="9.80" fill="#e3c24a" stroke="none"/>
<rect x="261.3" y="344.5" width="36.55" height="9.80" fill="#1a3748" stroke="none"/>
<rect x="297.8" y="344.5" width="36.55" height="9.80" fill="#1b394b" stroke="none"/>
<rect x="334.4" y="344.5" width="36.55" height="9.80" fill="#162733" stroke="none"/>
<rect x="370.9" y="344.5" width="36.55" height="9.80" fill="#15232e" stroke="none"/>
<rect x="407.5" y="344.5" width="36.55" height="9.80" fill="#215c75" stroke="none"/>
<rect x="42.0" y="354.3" width="36.55" height="9.80" fill="#141d26" stroke="none"/>
<rect x="78.5" y="354.3" width="36.55" height="9.80" fill="#141d26" stroke="none"/>
<rect x="115.1" y="354.3" width="36.55" height="9.80" fill="#141d26" stroke="none"/>
<rect x="151.6" y="354.3" width="36.55" height="9.80" fill="#141d26" stroke="none"/>
<rect x="188.2" y="354.3" width="36.55" height="9.80" fill="#141d26" stroke="none"/>
<rect x="224.7" y="354.3" width="36.55" height="9.80" fill="#e3c24a" stroke="none"/>
<rect x="261.3" y="354.3" width="36.55" height="9.80" fill="#193342" stroke="none"/>
<rect x="297.8" y="354.3" width="36.55" height="9.80" fill="#18303f" stroke="none"/>
<rect x="334.4" y="354.3" width="36.55" height="9.80" fill="#182d3b" stroke="none"/>
<rect x="370.9" y="354.3" width="36.55" height="9.80" fill="#162632" stroke="none"/>
<rect x="407.5" y="354.3" width="36.55" height="9.80" fill="#215c75" stroke="none"/>
<rect x="42.0" y="364.1" width="36.55" height="9.80" fill="#141d26" stroke="none"/>
<rect x="78.5" y="364.1" width="36.55" height="9.80" fill="#141d26" stroke="none"/>
<rect x="115.1" y="364.1" width="36.55" height="9.80" fill="#141d26" stroke="none"/>
<rect x="151.6" y="364.1" width="36.55" height="9.80" fill="#141d26" stroke="none"/>
<rect x="188.2" y="364.1" width="36.55" height="9.80" fill="#141d26" stroke="none"/>
<rect x="224.7" y="364.1" width="36.55" height="9.80" fill="#e3c24a" stroke="none"/>
<rect x="261.3" y="364.1" width="36.55" height="9.80" fill="#193242" stroke="none"/>
<rect x="297.8" y="364.1" width="36.55" height="9.80" fill="#172c3a" stroke="none"/>
<rect x="334.4" y="364.1" width="36.55" height="9.80" fill="#182d3b" stroke="none"/>
<rect x="370.9" y="364.1" width="36.55" height="9.80" fill="#162531" stroke="none"/>
<rect x="407.5" y="364.1" width="36.55" height="9.80" fill="#1f4d64" stroke="none"/>
<rect x="42.0" y="373.9" width="36.55" height="9.80" fill="#141d26" stroke="none"/>
<rect x="78.5" y="373.9" width="36.55" height="9.80" fill="#141d26" stroke="none"/>
<rect x="115.1" y="373.9" width="36.55" height="9.80" fill="#141d26" stroke="none"/>
<rect x="151.6" y="373.9" width="36.55" height="9.80" fill="#141d26" stroke="none"/>
<rect x="188.2" y="373.9" width="36.55" height="9.80" fill="#141d26" stroke="none"/>
<rect x="224.7" y="373.9" width="36.55" height="9.80" fill="#e3c24a" stroke="none"/>
<rect x="261.3" y="373.9" width="36.55" height="9.80" fill="#1a3545" stroke="none"/>
<rect x="297.8" y="373.9" width="36.55" height="9.80" fill="#172c3a" stroke="none"/>
<rect x="334.4" y="373.9" width="36.55" height="9.80" fill="#172b39" stroke="none"/>
<rect x="370.9" y="373.9" width="36.55" height="9.80" fill="#15232e" stroke="none"/>
<rect x="407.5" y="373.9" width="36.55" height="9.80" fill="#1e495f" stroke="none"/>
<rect x="42.0" y="383.7" width="36.55" height="9.80" fill="#141d26" stroke="none"/>
<rect x="78.5" y="383.7" width="36.55" height="9.80" fill="#141d26" stroke="none"/>
<rect x="115.1" y="383.7" width="36.55" height="9.80" fill="#141d26" stroke="none"/>
<rect x="151.6" y="383.7" width="36.55" height="9.80" fill="#141d26" stroke="none"/>
<rect x="188.2" y="383.7" width="36.55" height="9.80" fill="#141d26" stroke="none"/>
<rect x="224.7" y="383.7" width="36.55" height="9.80" fill="#e3c24a" stroke="none"/>
<rect x="261.3" y="383.7" width="36.55" height="9.80" fill="#1b394b" stroke="none"/>
<rect x="297.8" y="383.7" width="36.55" height="9.80" fill="#172936" stroke="none"/>
<rect x="334.4" y="383.7" width="36.55" height="9.80" fill="#172936" stroke="none"/>
<rect x="370.9" y="383.7" width="36.55" height="9.80" fill="#15232e" stroke="none"/>
<rect x="407.5" y="383.7" width="36.55" height="9.80" fill="#1a3647" stroke="none"/>
<rect x="42.0" y="393.5" width="36.55" height="9.80" fill="#141d26" stroke="none"/>
<rect x="78.5" y="393.5" width="36.55" height="9.80" fill="#141d26" stroke="none"/>
<rect x="115.1" y="393.5" width="36.55" height="9.80" fill="#141d26" stroke="none"/>
<rect x="151.6" y="393.5" width="36.55" height="9.80" fill="#141d26" stroke="none"/>
<rect x="188.2" y="393.5" width="36.55" height="9.80" fill="#141d26" stroke="none"/>
<rect x="224.7" y="393.5" width="36.55" height="9.80" fill="#e3c24a" stroke="none"/>
<rect x="261.3" y="393.5" width="36.55" height="9.80" fill="#1b3a4c" stroke="none"/>
<rect x="297.8" y="393.5" width="36.55" height="9.80" fill="#162734" stroke="none"/>
<rect x="334.4" y="393.5" width="36.55" height="9.80" fill="#162632" stroke="none"/>
<rect x="370.9" y="393.5" width="36.55" height="9.80" fill="#15212b" stroke="none"/>
<rect x="407.5" y="393.5" width="36.55" height="9.80" fill="#193242" stroke="none"/>
<rect x="42.0" y="403.3" width="36.55" height="9.80" fill="#141d26" stroke="none"/>
<rect x="78.5" y="403.3" width="36.55" height="9.80" fill="#141d26" stroke="none"/>
<rect x="115.1" y="403.3" width="36.55" height="9.80" fill="#141d26" stroke="none"/>
<rect x="151.6" y="403.3" width="36.55" height="9.80" fill="#141d26" stroke="none"/>
<rect x="188.2" y="403.3" width="36.55" height="9.80" fill="#141d26" stroke="none"/>
<rect x="224.7" y="403.3" width="36.55" height="9.80" fill="#e3c24a" stroke="none"/>
<rect x="261.3" y="403.3" width="36.55" height="9.80" fill="#1a384a" stroke="none"/>
<rect x="297.8" y="403.3" width="36.55" height="9.80" fill="#162632" stroke="none"/>
<rect x="334.4" y="403.3" width="36.55" height="9.80" fill="#162632" stroke="none"/>
<rect x="370.9" y="403.3" width="36.55" height="9.80" fill="#15212b" stroke="none"/>
<rect x="407.5" y="403.3" width="36.55" height="9.80" fill="#182e3c" stroke="none"/>
<rect x="42.0" y="413.1" width="36.55" height="9.80" fill="#141d26" stroke="none"/>
<rect x="78.5" y="413.1" width="36.55" height="9.80" fill="#141d26" stroke="none"/>
<rect x="115.1" y="413.1" width="36.55" height="9.80" fill="#141d26" stroke="none"/>
<rect x="151.6" y="413.1" width="36.55" height="9.80" fill="#141d26" stroke="none"/>
<rect x="188.2" y="413.1" width="36.55" height="9.80" fill="#141d26" stroke="none"/>
<rect x="224.7" y="413.1" width="36.55" height="9.80" fill="#e3c24a" stroke="none"/>
<rect x="261.3" y="413.1" width="36.55" height="9.80" fill="#193141" stroke="none"/>
<rect x="297.8" y="413.1" width="36.55" height="9.80" fill="#152430" stroke="none"/>
<rect x="334.4" y="413.1" width="36.55" height="9.80" fill="#162530" stroke="none"/>
<rect x="370.9" y="413.1" width="36.55" height="9.80" fill="#15212b" stroke="none"/>
<rect x="407.5" y="413.1" width="36.55" height="9.80" fill="#172b38" stroke="none"/>
<rect x="42.0" y="422.9" width="36.55" height="9.80" fill="#141d26" stroke="none"/>
<rect x="78.5" y="422.9" width="36.55" height="9.80" fill="#141d26" stroke="none"/>
<rect x="115.1" y="422.9" width="36.55" height="9.80" fill="#141d26" stroke="none"/>
<rect x="151.6" y="422.9" width="36.55" height="9.80" fill="#141d26" stroke="none"/>
<rect x="188.2" y="422.9" width="36.55" height="9.80" fill="#141d26" stroke="none"/>
<rect x="224.7" y="422.9" width="36.55" height="9.80" fill="#e3c24a" stroke="none"/>
<rect x="261.3" y="422.9" width="36.55" height="9.80" fill="#193241" stroke="none"/>
<rect x="297.8" y="422.9" width="36.55" height="9.80" fill="#15232e" stroke="none"/>
<rect x="334.4" y="422.9" width="36.55" height="9.80" fill="#162531" stroke="none"/>
<rect x="370.9" y="422.9" width="36.55" height="9.80" fill="#14202b" stroke="none"/>
<rect x="407.5" y="422.9" width="36.55" height="9.80" fill="#162835" stroke="none"/>
<rect x="42.0" y="432.7" width="36.55" height="9.80" fill="#141d26" stroke="none"/>
<rect x="78.5" y="432.7" width="36.55" height="9.80" fill="#141d26" stroke="none"/>
<rect x="115.1" y="432.7" width="36.55" height="9.80" fill="#141d26" stroke="none"/>
<rect x="151.6" y="432.7" width="36.55" height="9.80" fill="#141d26" stroke="none"/>
<rect x="188.2" y="432.7" width="36.55" height="9.80" fill="#141d26" stroke="none"/>
<rect x="224.7" y="432.7" width="36.55" height="9.80" fill="#e3c24a" stroke="none"/>
<rect x="261.3" y="432.7" width="36.55" height="9.80" fill="#18303f" stroke="none"/>
<rect x="297.8" y="432.7" width="36.55" height="9.80" fill="#15212c" stroke="none"/>
<rect x="334.4" y="432.7" width="36.55" height="9.80" fill="#15242f" stroke="none"/>
<rect x="370.9" y="432.7" width="36.55" height="9.80" fill="#14202b" stroke="none"/>
<rect x="407.5" y="432.7" width="36.55" height="9.80" fill="#172935" stroke="none"/>
<rect x="42.0" y="442.4" width="36.55" height="9.80" fill="#141d26" stroke="none"/>
<rect x="78.5" y="442.4" width="36.55" height="9.80" fill="#141d26" stroke="none"/>
<rect x="115.1" y="442.4" width="36.55" height="9.80" fill="#141d26" stroke="none"/>
<rect x="151.6" y="442.4" width="36.55" height="9.80" fill="#141d26" stroke="none"/>
<rect x="188.2" y="442.4" width="36.55" height="9.80" fill="#141d26" stroke="none"/>
<rect x="224.7" y="442.4" width="36.55" height="9.80" fill="#e3c24a" stroke="none"/>
<rect x="261.3" y="442.4" width="36.55" height="9.80" fill="#193241" stroke="none"/>
<rect x="297.8" y="442.4" width="36.55" height="9.80" fill="#15232d" stroke="none"/>
<rect x="334.4" y="442.4" width="36.55" height="9.80" fill="#15242f" stroke="none"/>
<rect x="370.9" y="442.4" width="36.55" height="9.80" fill="#15212b" stroke="none"/>
<rect x="407.5" y="442.4" width="36.55" height="9.80" fill="#172936" stroke="none"/>
<rect x="42.0" y="452.2" width="36.55" height="9.80" fill="#141d26" stroke="none"/>
<rect x="78.5" y="452.2" width="36.55" height="9.80" fill="#141d26" stroke="none"/>
<rect x="115.1" y="452.2" width="36.55" height="9.80" fill="#141d26" stroke="none"/>
<rect x="151.6" y="452.2" width="36.55" height="9.80" fill="#141d26" stroke="none"/>
<rect x="188.2" y="452.2" width="36.55" height="9.80" fill="#141d26" stroke="none"/>
<rect x="224.7" y="452.2" width="36.55" height="9.80" fill="#e3c24a" stroke="none"/>
<rect x="261.3" y="452.2" width="36.55" height="9.80" fill="#1a3545" stroke="none"/>
<rect x="297.8" y="452.2" width="36.55" height="9.80" fill="#15232e" stroke="none"/>
<rect x="334.4" y="452.2" width="36.55" height="9.80" fill="#152430" stroke="none"/>
<rect x="370.9" y="452.2" width="36.55" height="9.80" fill="#14202b" stroke="none"/>
<rect x="407.5" y="452.2" width="36.55" height="9.80" fill="#172936" stroke="none"/>
<rect x="42.0" y="462.0" width="36.55" height="9.80" fill="#141d26" stroke="none"/>
<rect x="78.5" y="462.0" width="36.55" height="9.80" fill="#141d26" stroke="none"/>
<rect x="115.1" y="462.0" width="36.55" height="9.80" fill="#141d26" stroke="none"/>
<rect x="151.6" y="462.0" width="36.55" height="9.80" fill="#141d26" stroke="none"/>
<rect x="188.2" y="462.0" width="36.55" height="9.80" fill="#141d26" stroke="none"/>
<rect x="224.7" y="462.0" width="36.55" height="9.80" fill="#e3c24a" stroke="none"/>
<rect x="261.3" y="462.0" width="36.55" height="9.80" fill="#193444" stroke="none"/>
<rect x="297.8" y="462.0" width="36.55" height="9.80" fill="#15232e" stroke="none"/>
<rect x="334.4" y="462.0" width="36.55" height="9.80" fill="#152430" stroke="none"/>
<rect x="370.9" y="462.0" width="36.55" height="9.80" fill="#14202a" stroke="none"/>
<rect x="407.5" y="462.0" width="36.55" height="9.80" fill="#162734" stroke="none"/>
<rect x="42.0" y="471.8" width="36.55" height="9.80" fill="#141d26" stroke="none"/>
<rect x="78.5" y="471.8" width="36.55" height="9.80" fill="#141d26" stroke="none"/>
<rect x="115.1" y="471.8" width="36.55" height="9.80" fill="#141d26" stroke="none"/>
<rect x="151.6" y="471.8" width="36.55" height="9.80" fill="#141d26" stroke="none"/>
<rect x="188.2" y="471.8" width="36.55" height="9.80" fill="#141d26" stroke="none"/>
<rect x="224.7" y="471.8" width="36.55" height="9.80" fill="#e3c24a" stroke="none"/>
<rect x="261.3" y="471.8" width="36.55" height="9.80" fill="#1a3647" stroke="none"/>
<rect x="297.8" y="471.8" width="36.55" height="9.80" fill="#15242f" stroke="none"/>
<rect x="334.4" y="471.8" width="36.55" height="9.80" fill="#15242f" stroke="none"/>
<rect x="370.9" y="471.8" width="36.55" height="9.80" fill="#14202a" stroke="none"/>
<rect x="407.5" y="471.8" width="36.55" height="9.80" fill="#162734" stroke="none"/>
<rect x="42.0" y="481.6" width="36.55" height="9.80" fill="#141d26" stroke="none"/>
<rect x="78.5" y="481.6" width="36.55" height="9.80" fill="#141d26" stroke="none"/>
<rect x="115.1" y="481.6" width="36.55" height="9.80" fill="#141d26" stroke="none"/>
<rect x="151.6" y="481.6" width="36.55" height="9.80" fill="#141d26" stroke="none"/>
<rect x="188.2" y="481.6" width="36.55" height="9.80" fill="#141d26" stroke="none"/>
<rect x="224.7" y="481.6" width="36.55" height="9.80" fill="#e3c24a" stroke="none"/>
<rect x="261.3" y="481.6" width="36.55" height="9.80" fill="#1a3647" stroke="none"/>
<rect x="297.8" y="481.6" width="36.55" height="9.80" fill="#15242f" stroke="none"/>
<rect x="334.4" y="481.6" width="36.55" height="9.80" fill="#15242f" stroke="none"/>
<rect x="370.9" y="481.6" width="36.55" height="9.80" fill="#141f29" stroke="none"/>
<rect x="407.5" y="481.6" width="36.55" height="9.80" fill="#162632" stroke="none"/>
<rect x="42.0" y="491.4" width="36.55" height="9.80" fill="#141d26" stroke="none"/>
<rect x="78.5" y="491.4" width="36.55" height="9.80" fill="#141d26" stroke="none"/>
<rect x="115.1" y="491.4" width="36.55" height="9.80" fill="#141d26" stroke="none"/>
<rect x="151.6" y="491.4" width="36.55" height="9.80" fill="#141d26" stroke="none"/>
<rect x="188.2" y="491.4" width="36.55" height="9.80" fill="#141d26" stroke="none"/>
<rect x="224.7" y="491.4" width="36.55" height="9.80" fill="#e3c24a" stroke="none"/>
<rect x="261.3" y="491.4" width="36.55" height="9.80" fill="#1a384a" stroke="none"/>
<rect x="297.8" y="491.4" width="36.55" height="9.80" fill="#15242f" stroke="none"/>
<rect x="334.4" y="491.4" width="36.55" height="9.80" fill="#15232e" stroke="none"/>
<rect x="370.9" y="491.4" width="36.55" height="9.80" fill="#141f28" stroke="none"/>
<rect x="407.5" y="491.4" width="36.55" height="9.80" fill="#162632" stroke="none"/>
<rect x="42.0" y="501.2" width="36.55" height="9.80" fill="#141d26" stroke="none"/>
<rect x="78.5" y="501.2" width="36.55" height="9.80" fill="#141d26" stroke="none"/>
<rect x="115.1" y="501.2" width="36.55" height="9.80" fill="#141d26" stroke="none"/>
<rect x="151.6" y="501.2" width="36.55" height="9.80" fill="#141d26" stroke="none"/>
<rect x="188.2" y="501.2" width="36.55" height="9.80" fill="#141d26" stroke="none"/>
<rect x="224.7" y="501.2" width="36.55" height="9.80" fill="#e3c24a" stroke="none"/>
<rect x="261.3" y="501.2" width="36.55" height="9.80" fill="#1a3849" stroke="none"/>
<rect x="297.8" y="501.2" width="36.55" height="9.80" fill="#15232e" stroke="none"/>
<rect x="334.4" y="501.2" width="36.55" height="9.80" fill="#15222d" stroke="none"/>
<rect x="370.9" y="501.2" width="36.55" height="9.80" fill="#141f28" stroke="none"/>
<rect x="407.5" y="501.2" width="36.55" height="9.80" fill="#162530" stroke="none"/>
<rect x="42.0" y="511.0" width="36.55" height="9.80" fill="#141d26" stroke="none"/>
<rect x="78.5" y="511.0" width="36.55" height="9.80" fill="#141d26" stroke="none"/>
<rect x="115.1" y="511.0" width="36.55" height="9.80" fill="#141d26" stroke="none"/>
<rect x="151.6" y="511.0" width="36.55" height="9.80" fill="#141d26" stroke="none"/>
<rect x="188.2" y="511.0" width="36.55" height="9.80" fill="#141d26" stroke="none"/>
<rect x="224.7" y="511.0" width="36.55" height="9.80" fill="#e3c24a" stroke="none"/>
<rect x="261.3" y="511.0" width="36.55" height="9.80" fill="#1a384a" stroke="none"/>
<rect x="297.8" y="511.0" width="36.55" height="9.80" fill="#152430" stroke="none"/>
<rect x="334.4" y="511.0" width="36.55" height="9.80" fill="#15222d" stroke="none"/>
<rect x="370.9" y="511.0" width="36.55" height="9.80" fill="#141e28" stroke="none"/>
<rect x="407.5" y="511.0" width="36.55" height="9.80" fill="#162530" stroke="none"/>
<rect x="42.0" y="520.8" width="36.55" height="9.80" fill="#141d26" stroke="none"/>
<rect x="78.5" y="520.8" width="36.55" height="9.80" fill="#141d26" stroke="none"/>
<rect x="115.1" y="520.8" width="36.55" height="9.80" fill="#141d26" stroke="none"/>
<rect x="151.6" y="520.8" width="36.55" height="9.80" fill="#141d26" stroke="none"/>
<rect x="188.2" y="520.8" width="36.55" height="9.80" fill="#141d26" stroke="none"/>
<rect x="224.7" y="520.8" width="36.55" height="9.80" fill="#e3c24a" stroke="none"/>
<rect x="261.3" y="520.8" width="36.55" height="9.80" fill="#1a3748" stroke="none"/>
<rect x="297.8" y="520.8" width="36.55" height="9.80" fill="#152430" stroke="none"/>
<rect x="334.4" y="520.8" width="36.55" height="9.80" fill="#15232d" stroke="none"/>
<rect x="370.9" y="520.8" width="36.55" height="9.80" fill="#141f28" stroke="none"/>
<rect x="407.5" y="520.8" width="36.55" height="9.80" fill="#15242f" stroke="none"/>
<rect x="42.0" y="530.6" width="36.55" height="9.80" fill="#141d26" stroke="none"/>
<rect x="78.5" y="530.6" width="36.55" height="9.80" fill="#141d26" stroke="none"/>
<rect x="115.1" y="530.6" width="36.55" height="9.80" fill="#141d26" stroke="none"/>
<rect x="151.6" y="530.6" width="36.55" height="9.80" fill="#141d26" stroke="none"/>
<rect x="188.2" y="530.6" width="36.55" height="9.80" fill="#141d26" stroke="none"/>
<rect x="224.7" y="530.6" width="36.55" height="9.80" fill="#e3c24a" stroke="none"/>
<rect x="261.3" y="530.6" width="36.55" height="9.80" fill="#193342" stroke="none"/>
<rect x="297.8" y="530.6" width="36.55" height="9.80" fill="#15242f" stroke="none"/>
<rect x="334.4" y="530.6" width="36.55" height="9.80" fill="#15222d" stroke="none"/>
<rect x="370.9" y="530.6" width="36.55" height="9.80" fill="#141e28" stroke="none"/>
<rect x="407.5" y="530.6" width="36.55" height="9.80" fill="#15232e" stroke="none"/>
<rect x="42.0" y="540.4" width="36.55" height="9.80" fill="#141d26" stroke="none"/>
<rect x="78.5" y="540.4" width="36.55" height="9.80" fill="#141d26" stroke="none"/>
<rect x="115.1" y="540.4" width="36.55" height="9.80" fill="#141d26" stroke="none"/>
<rect x="151.6" y="540.4" width="36.55" height="9.80" fill="#141d26" stroke="none"/>
<rect x="188.2" y="540.4" width="36.55" height="9.80" fill="#141d26" stroke="none"/>
<rect x="224.7" y="540.4" width="36.55" height="9.80" fill="#e3c24a" stroke="none"/>
<rect x="261.3" y="540.4" width="36.55" height="9.80" fill="#193242" stroke="none"/>
<rect x="297.8" y="540.4" width="36.55" height="9.80" fill="#15242f" stroke="none"/>
<rect x="334.4" y="540.4" width="36.55" height="9.80" fill="#15232e" stroke="none"/>
<rect x="370.9" y="540.4" width="36.55" height="9.80" fill="#141f28" stroke="none"/>
<rect x="407.5" y="540.4" width="36.55" height="9.80" fill="#15232e" stroke="none"/>
<rect x="42.0" y="550.2" width="36.55" height="9.80" fill="#141d26" stroke="none"/>
<rect x="78.5" y="550.2" width="36.55" height="9.80" fill="#141d26" stroke="none"/>
<rect x="115.1" y="550.2" width="36.55" height="9.80" fill="#141d26" stroke="none"/>
<rect x="151.6" y="550.2" width="36.55" height="9.80" fill="#141d26" stroke="none"/>
<rect x="188.2" y="550.2" width="36.55" height="9.80" fill="#141d26" stroke="none"/>
<rect x="224.7" y="550.2" width="36.55" height="9.80" fill="#e3c24a" stroke="none"/>
<rect x="261.3" y="550.2" width="36.55" height="9.80" fill="#15222d" stroke="none"/>
<rect x="297.8" y="550.2" width="36.55" height="9.80" fill="#162834" stroke="none"/>
<rect x="334.4" y="550.2" width="36.55" height="9.80" fill="#141e27" stroke="none"/>
<rect x="370.9" y="550.2" width="36.55" height="9.80" fill="#141d26" stroke="none"/>
<rect x="407.5" y="550.2" width="36.55" height="9.80" fill="#15222c" stroke="none"/>
<rect x="224.7" y="80" width="36.55" height="480.0" fill="none" stroke="#C86868" stroke-width="0.8" opacity="0.8"/>
<rect x="261.3" y="80" width="36.55" height="480.0" fill="none" stroke="#E3C24A" stroke-width="0.8" opacity="0.8"/>
<text x="60.3" y="76.0" font-family="JetBrains Mono,monospace" font-size="9" fill="#A4B0BC" text-anchor="start" transform="rotate(-45 60.3 76.0)">&lt;bos&gt;</text>
<text x="96.8" y="76.0" font-family="JetBrains Mono,monospace" font-size="9" fill="#A4B0BC" text-anchor="start" transform="rotate(-45 96.8 76.0)">'</text>
<text x="133.4" y="76.0" font-family="JetBrains Mono,monospace" font-size="9" fill="#A4B0BC" text-anchor="start" transform="rotate(-45 133.4 76.0)">that</text>
<text x="169.9" y="76.0" font-family="JetBrains Mono,monospace" font-size="9" fill="#A4B0BC" text-anchor="start" transform="rotate(-45 169.9 76.0)">was</text>
<text x="206.5" y="76.0" font-family="JetBrains Mono,monospace" font-size="9" fill="#A4B0BC" text-anchor="start" transform="rotate(-45 206.5 76.0)">quite</text>
<text x="243.0" y="76.0" font-family="JetBrains Mono,monospace" font-size="9" fill="#C86868" text-anchor="start" transform="rotate(-45 243.0 76.0)">+a</text>
<text x="279.5" y="76.0" font-family="JetBrains Mono,monospace" font-size="9" fill="#E3C24A" text-anchor="start" transform="rotate(-45 279.5 76.0)">novel</text>
<text x="316.1" y="76.0" font-family="JetBrains Mono,monospace" font-size="9" fill="#A4B0BC" text-anchor="start" transform="rotate(-45 316.1 76.0)">,'</text>
<text x="352.6" y="76.0" font-family="JetBrains Mono,monospace" font-size="9" fill="#A4B0BC" text-anchor="start" transform="rotate(-45 352.6 76.0)">she</text>
<text x="389.2" y="76.0" font-family="JetBrains Mono,monospace" font-size="7.5" fill="#A4B0BC" text-anchor="start" transform="rotate(-45 389.2 76.0)">exclaimed</text>
<text x="425.7" y="76.0" font-family="JetBrains Mono,monospace" font-size="9" fill="#A4B0BC" text-anchor="start" transform="rotate(-45 425.7 76.0)">.</text>
<text x="38" y="88.1" font-family="JetBrains Mono,monospace" font-size="8.5" fill="#6F7C88" text-anchor="end">emb</text>
<text x="38" y="97.9" font-family="JetBrains Mono,monospace" font-size="8.5" fill="#6F7C88" text-anchor="end">0</text>
<text x="38" y="440.8" font-family="JetBrains Mono,monospace" font-size="8.5" fill="#6F7C88" text-anchor="end">35</text>
<text x="38" y="146.9" font-family="JetBrains Mono,monospace" font-size="8.5" fill="#6F7C88" text-anchor="end">5</text>
<text x="38" y="489.7" font-family="JetBrains Mono,monospace" font-size="8.5" fill="#6F7C88" text-anchor="end">40</text>
<text x="38" y="195.9" font-family="JetBrains Mono,monospace" font-size="8.5" fill="#6F7C88" text-anchor="end">10</text>
<text x="38" y="538.7" font-family="JetBrains Mono,monospace" font-size="8.5" fill="#6F7C88" text-anchor="end">45</text>
<text x="38" y="244.8" font-family="JetBrains Mono,monospace" font-size="8.5" fill="#6F7C88" text-anchor="end">15</text>
<text x="38" y="558.3" font-family="JetBrains Mono,monospace" font-size="8.5" fill="#6F7C88" text-anchor="end">47</text>
<text x="38" y="293.8" font-family="JetBrains Mono,monospace" font-size="8.5" fill="#6F7C88" text-anchor="end">20</text>
<text x="38" y="342.8" font-family="JetBrains Mono,monospace" font-size="8.5" fill="#6F7C88" text-anchor="end">25</text>
<text x="38" y="391.8" font-family="JetBrains Mono,monospace" font-size="8.5" fill="#6F7C88" text-anchor="end">30</text>
</svg>