<svg viewBox="0 0 720 470" xmlns="http://www.w3.org/2000/svg"
     font-family="var(--font-mono,'JetBrains Mono',ui-monospace,Menlo,monospace)">
  <style>
    .ttl  { font-family: var(--font-serif,'Newsreader',Georgia,serif); }
    text  { fill: var(--ink,#DCE4EC); }
    .mut  { fill: var(--muted,#6F7C88); }
    .ink2 { fill: var(--ink2,#A4B0BC); }
    .acc  { fill: var(--accent,#4FB2C2); }
    .vio  { fill: var(--neg,#B98AD6); }
    .sla  { fill: var(--fourth,#6E92C4); }
    .accs { stroke: var(--accent,#4FB2C2); fill:none; }
    .vios { stroke: var(--neg,#B98AD6); fill:none; }
    .rule { stroke: var(--rule2,#27323D); }
    .axis { stroke: var(--ink2,#A4B0BC); }
  </style>
  <rect x="0" y="0" width="720" height="470" fill="var(--bg2,#141D26)"/>
<text class="ttl" x="40" y="34" font-size="18">The phantom-mover plot</text>
<text class="mut" x="40" y="52" font-size="10">Gemma-E4B · 246 configs · partial-credit t vs strict t (both vs baseline)</text>
<circle cx="470" cy="96" r="3.4" class="acc"/><text x="478" y="99" class="ink2" font-size="9">strict up (14)</text>
<polygon points="620,100.2 616.4,93.9 623.6,93.9" class="vio"/><text x="628" y="99" class="ink2" font-size="9">phantom (64)</text>
<line x1="22" y1="426" x2="698" y2="426" class="rule" stroke-width="1"/>
<text x="22" y="444" class="ink2" font-size="11">No config's strict t clears +2: every <tspan class="vio">phantom</tspan> sits far below the diagonal.</text>
<line x1="70" y1="120" x2="70" y2="380" class="axis" stroke-width="1"/>
<line x1="70" y1="238.2" x2="690" y2="238.2" class="rule" stroke-width="1"/>
<line x1="295.5" y1="120" x2="295.5" y2="380" class="rule" stroke-width="1"/>
<line x1="126.4" y1="380.0" x2="436.4" y2="120.0" class="accs" stroke-width="1.3" stroke-dasharray="5 4" opacity="0.8"/>
<text x="182.7" y="326.7" class="acc" font-size="9" transform="rotate(-40 182.7 326.7)">strict = partial · honest</text>
<circle cx="70.0" cy="364.9" r="2.2" class="sla" opacity="0.5"/>
<circle cx="70.0" cy="364.9" r="2.2" class="sla" opacity="0.5"/>
<circle cx="154.2" cy="265.4" r="2.2" class="sla" opacity="0.5"/>
<circle cx="242.6" cy="298.1" r="2.2" class="sla" opacity="0.5"/>
<circle cx="70.0" cy="364.9" r="2.2" class="sla" opacity="0.5"/>
<circle cx="70.0" cy="364.9" r="2.2" class="sla" opacity="0.5"/>
<circle cx="70.0" cy="364.9" r="2.2" class="sla" opacity="0.5"/>
<circle cx="167.0" cy="280.9" r="2.2" class="sla" opacity="0.5"/>
<circle cx="170.6" cy="364.9" r="2.2" class="sla" opacity="0.5"/>
<circle cx="70.0" cy="364.9" r="2.2" class="sla" opacity="0.5"/>
<circle cx="133.1" cy="364.9" r="2.2" class="sla" opacity="0.5"/>
<circle cx="70.0" cy="364.9" r="2.2" class="sla" opacity="0.5"/>
<circle cx="70.0" cy="364.9" r="2.2" class="sla" opacity="0.5"/>
<circle cx="70.0" cy="364.9" r="2.2" class="sla" opacity="0.5"/>
<circle cx="70.0" cy="364.9" r="2.2" class="sla" opacity="0.5"/>
<circle cx="70.0" cy="334.3" r="2.2" class="sla" opacity="0.5"/>
<circle cx="70.0" cy="334.3" r="2.2" class="sla" opacity="0.5"/>
<circle cx="210.8" cy="334.3" r="2.2" class="sla" opacity="0.5"/>
<circle cx="137.5" cy="334.3" r="2.2" class="sla" opacity="0.5"/>
<circle cx="70.0" cy="334.3" r="2.2" class="sla" opacity="0.5"/>
<circle cx="70.0" cy="334.3" r="2.2" class="sla" opacity="0.5"/>
<circle cx="70.0" cy="334.3" r="2.2" class="sla" opacity="0.5"/>
<circle cx="263.3" cy="334.3" r="2.2" class="sla" opacity="0.5"/>
<circle cx="70.0" cy="334.3" r="2.2" class="sla" opacity="0.5"/>
<circle cx="125.7" cy="334.3" r="2.2" class="sla" opacity="0.5"/>
<circle cx="70.0" cy="334.3" r="2.2" class="sla" opacity="0.5"/>
<circle cx="70.0" cy="334.3" r="2.2" class="sla" opacity="0.5"/>
<circle cx="70.0" cy="334.3" r="2.2" class="sla" opacity="0.5"/>
<circle cx="70.0" cy="334.3" r="2.2" class="sla" opacity="0.5"/>
<circle cx="189.3" cy="334.3" r="2.2" class="sla" opacity="0.5"/>
<circle cx="70.0" cy="334.3" r="2.2" class="sla" opacity="0.5"/>
<circle cx="230.9" cy="334.3" r="2.2" class="sla" opacity="0.5"/>
<circle cx="193.0" cy="334.3" r="2.2" class="sla" opacity="0.5"/>
<circle cx="252.9" cy="334.3" r="2.2" class="sla" opacity="0.5"/>
<circle cx="185.1" cy="334.3" r="2.2" class="sla" opacity="0.5"/>
<circle cx="244.1" cy="334.3" r="2.2" class="sla" opacity="0.5"/>
<circle cx="100.3" cy="334.3" r="2.2" class="sla" opacity="0.5"/>
<circle cx="282.5" cy="276.7" r="2.2" class="sla" opacity="0.5"/>
<circle cx="70.0" cy="334.3" r="2.2" class="sla" opacity="0.5"/>
<circle cx="70.0" cy="334.3" r="2.2" class="sla" opacity="0.5"/>
<circle cx="70.0" cy="334.3" r="2.2" class="sla" opacity="0.5"/>
<circle cx="70.0" cy="334.3" r="2.2" class="sla" opacity="0.5"/>
<circle cx="70.0" cy="334.3" r="2.2" class="sla" opacity="0.5"/>
<circle cx="70.0" cy="334.3" r="2.2" class="sla" opacity="0.5"/>
<circle cx="197.1" cy="334.3" r="2.2" class="sla" opacity="0.5"/>
<circle cx="179.9" cy="334.3" r="2.2" class="sla" opacity="0.5"/>
<circle cx="70.0" cy="334.3" r="2.2" class="sla" opacity="0.5"/>
<circle cx="70.0" cy="334.3" r="2.2" class="sla" opacity="0.5"/>
<circle cx="70.0" cy="334.3" r="2.2" class="sla" opacity="0.5"/>
<circle cx="196.0" cy="334.3" r="2.2" class="sla" opacity="0.5"/>
<circle cx="70.0" cy="334.3" r="2.2" class="sla" opacity="0.5"/>
<circle cx="136.8" cy="334.3" r="2.2" class="sla" opacity="0.5"/>
<circle cx="70.0" cy="334.3" r="2.2" class="sla" opacity="0.5"/>
<circle cx="70.0" cy="334.3" r="2.2" class="sla" opacity="0.5"/>
<circle cx="70.0" cy="334.3" r="2.2" class="sla" opacity="0.5"/>
<circle cx="70.0" cy="334.3" r="2.2" class="sla" opacity="0.5"/>
<circle cx="70.0" cy="334.3" r="2.2" class="sla" opacity="0.5"/>
<circle cx="70.0" cy="334.3" r="2.2" class="sla" opacity="0.5"/>
<circle cx="70.0" cy="334.3" r="2.2" class="sla" opacity="0.5"/>
<circle cx="284.7" cy="334.3" r="2.2" class="sla" opacity="0.5"/>
<circle cx="209.3" cy="334.3" r="2.2" class="sla" opacity="0.5"/>
<circle cx="151.7" cy="334.3" r="2.2" class="sla" opacity="0.5"/>
<circle cx="127.6" cy="334.3" r="2.2" class="sla" opacity="0.5"/>
<circle cx="232.2" cy="334.3" r="2.2" class="sla" opacity="0.5"/>
<circle cx="180.8" cy="301.9" r="2.2" class="sla" opacity="0.5"/>
<circle cx="84.0" cy="334.3" r="2.2" class="sla" opacity="0.5"/>
<circle cx="70.0" cy="334.3" r="2.2" class="sla" opacity="0.5"/>
<circle cx="225.0" cy="334.3" r="2.2" class="sla" opacity="0.5"/>
<circle cx="217.3" cy="334.3" r="2.2" class="sla" opacity="0.5"/>
<circle cx="101.5" cy="334.3" r="2.2" class="sla" opacity="0.5"/>
<circle cx="130.5" cy="334.3" r="2.2" class="sla" opacity="0.5"/>
<circle cx="248.2" cy="334.3" r="2.2" class="sla" opacity="0.5"/>
<circle cx="233.8" cy="334.3" r="2.2" class="sla" opacity="0.5"/>
<circle cx="258.6" cy="334.3" r="2.2" class="sla" opacity="0.5"/>
<circle cx="186.3" cy="334.3" r="2.2" class="sla" opacity="0.5"/>
<circle cx="209.9" cy="334.3" r="2.2" class="sla" opacity="0.5"/>
<circle cx="270.2" cy="259.2" r="2.2" class="sla" opacity="0.5"/>
<circle cx="101.6" cy="334.3" r="2.2" class="sla" opacity="0.5"/>
<circle cx="70.0" cy="334.3" r="2.2" class="sla" opacity="0.5"/>
<circle cx="193.5" cy="334.3" r="2.2" class="sla" opacity="0.5"/>
<circle cx="98.2" cy="334.3" r="2.2" class="sla" opacity="0.5"/>
<circle cx="70.0" cy="334.3" r="2.2" class="sla" opacity="0.5"/>
<circle cx="235.8" cy="256.0" r="2.2" class="sla" opacity="0.5"/>
<circle cx="70.0" cy="320.9" r="2.2" class="sla" opacity="0.5"/>
<circle cx="256.5" cy="334.3" r="2.2" class="sla" opacity="0.5"/>
<circle cx="70.0" cy="334.3" r="2.2" class="sla" opacity="0.5"/>
<circle cx="255.1" cy="334.3" r="2.2" class="sla" opacity="0.5"/>
<circle cx="70.0" cy="320.9" r="2.2" class="sla" opacity="0.5"/>
<circle cx="173.4" cy="334.3" r="2.2" class="sla" opacity="0.5"/>
<circle cx="70.0" cy="301.9" r="2.2" class="sla" opacity="0.5"/>
<circle cx="70.0" cy="334.3" r="2.2" class="sla" opacity="0.5"/>
<circle cx="70.0" cy="334.3" r="2.2" class="sla" opacity="0.5"/>
<circle cx="158.1" cy="334.3" r="2.2" class="sla" opacity="0.5"/>
<circle cx="177.8" cy="334.3" r="2.2" class="sla" opacity="0.5"/>
<circle cx="205.9" cy="334.3" r="2.2" class="sla" opacity="0.5"/>
<circle cx="134.7" cy="334.3" r="2.2" class="sla" opacity="0.5"/>
<circle cx="111.7" cy="334.3" r="2.2" class="sla" opacity="0.5"/>
<circle cx="289.9" cy="334.3" r="2.2" class="sla" opacity="0.5"/>
<circle cx="250.6" cy="259.2" r="2.2" class="sla" opacity="0.5"/>
<circle cx="178.4" cy="285.5" r="2.2" class="sla" opacity="0.5"/>
<circle cx="166.4" cy="301.9" r="2.2" class="sla" opacity="0.5"/>
<circle cx="70.0" cy="334.3" r="2.2" class="sla" opacity="0.5"/>
<circle cx="70.0" cy="301.9" r="2.2" class="sla" opacity="0.5"/>
<circle cx="271.9" cy="334.3" r="2.2" class="sla" opacity="0.5"/>
<circle cx="268.6" cy="285.5" r="2.2" class="sla" opacity="0.5"/>
<circle cx="251.0" cy="320.9" r="2.2" class="sla" opacity="0.5"/>
<circle cx="233.5" cy="334.3" r="2.2" class="sla" opacity="0.5"/>
<circle cx="132.6" cy="334.3" r="2.2" class="sla" opacity="0.5"/>
<circle cx="168.7" cy="301.9" r="2.2" class="sla" opacity="0.5"/>
<circle cx="70.0" cy="334.3" r="2.2" class="sla" opacity="0.5"/>
<circle cx="128.4" cy="334.3" r="2.2" class="sla" opacity="0.5"/>
<circle cx="198.7" cy="334.3" r="2.2" class="sla" opacity="0.5"/>
<circle cx="70.0" cy="334.3" r="2.2" class="sla" opacity="0.5"/>
<circle cx="70.0" cy="334.3" r="2.2" class="sla" opacity="0.5"/>
<circle cx="249.7" cy="334.3" r="2.2" class="sla" opacity="0.5"/>
<circle cx="203.6" cy="285.5" r="2.2" class="sla" opacity="0.5"/>
<circle cx="238.8" cy="334.3" r="2.2" class="sla" opacity="0.5"/>
<circle cx="244.4" cy="301.9" r="2.2" class="sla" opacity="0.5"/>
<circle cx="169.8" cy="334.3" r="2.2" class="sla" opacity="0.5"/>
<circle cx="286.4" cy="285.5" r="2.2" class="sla" opacity="0.5"/>
<circle cx="70.0" cy="334.3" r="2.2" class="sla" opacity="0.5"/>
<circle cx="168.3" cy="334.3" r="2.2" class="sla" opacity="0.5"/>
<circle cx="197.7" cy="334.3" r="2.2" class="sla" opacity="0.5"/>
<circle cx="166.7" cy="334.3" r="2.2" class="sla" opacity="0.5"/>
<circle cx="70.0" cy="334.3" r="2.2" class="sla" opacity="0.5"/>
<circle cx="70.0" cy="334.3" r="2.2" class="sla" opacity="0.5"/>
<circle cx="70.0" cy="334.3" r="2.2" class="sla" opacity="0.5"/>
<circle cx="126.9" cy="334.3" r="2.2" class="sla" opacity="0.5"/>
<circle cx="71.8" cy="334.3" r="2.2" class="sla" opacity="0.5"/>
<circle cx="141.2" cy="334.3" r="2.2" class="sla" opacity="0.5"/>
<circle cx="70.0" cy="334.3" r="2.2" class="sla" opacity="0.5"/>
<circle cx="81.6" cy="334.3" r="2.2" class="sla" opacity="0.5"/>
<circle cx="70.0" cy="334.3" r="2.2" class="sla" opacity="0.5"/>
<circle cx="70.0" cy="334.3" r="2.2" class="sla" opacity="0.5"/>
<circle cx="70.0" cy="334.3" r="2.2" class="sla" opacity="0.5"/>
<circle cx="70.0" cy="334.3" r="2.2" class="sla" opacity="0.5"/>
<circle cx="70.0" cy="334.3" r="2.2" class="sla" opacity="0.5"/>
<circle cx="70.0" cy="334.3" r="2.2" class="sla" opacity="0.5"/>
<circle cx="194.1" cy="334.3" r="2.2" class="sla" opacity="0.5"/>
<circle cx="174.8" cy="334.3" r="2.2" class="sla" opacity="0.5"/>
<circle cx="176.3" cy="334.3" r="2.2" class="sla" opacity="0.5"/>
<circle cx="70.0" cy="334.3" r="2.2" class="sla" opacity="0.5"/>
<circle cx="70.0" cy="334.3" r="2.2" class="sla" opacity="0.5"/>
<circle cx="70.0" cy="334.3" r="2.2" class="sla" opacity="0.5"/>
<circle cx="70.0" cy="334.3" r="2.2" class="sla" opacity="0.5"/>
<circle cx="70.0" cy="334.3" r="2.2" class="sla" opacity="0.5"/>
<circle cx="70.0" cy="334.3" r="2.2" class="sla" opacity="0.5"/>
<circle cx="102.2" cy="334.3" r="2.2" class="sla" opacity="0.5"/>
<circle cx="88.4" cy="334.3" r="2.2" class="sla" opacity="0.5"/>
<circle cx="70.0" cy="334.3" r="2.2" class="sla" opacity="0.5"/>
<circle cx="70.0" cy="334.3" r="2.2" class="sla" opacity="0.5"/>
<circle cx="70.0" cy="334.3" r="2.2" class="sla" opacity="0.5"/>
<circle cx="70.0" cy="334.3" r="2.2" class="sla" opacity="0.5"/>
<circle cx="70.0" cy="334.3" r="2.2" class="sla" opacity="0.5"/>
<circle cx="70.0" cy="334.3" r="2.2" class="sla" opacity="0.5"/>
<circle cx="70.0" cy="334.3" r="2.2" class="sla" opacity="0.5"/>
<circle cx="70.0" cy="334.3" r="2.2" class="sla" opacity="0.5"/>
<circle cx="70.0" cy="334.3" r="2.2" class="sla" opacity="0.5"/>
<circle cx="70.0" cy="334.3" r="2.2" class="sla" opacity="0.5"/>
<circle cx="70.0" cy="334.3" r="2.2" class="sla" opacity="0.5"/>
<circle cx="286.0" cy="301.9" r="2.2" class="sla" opacity="0.5"/>
<circle cx="233.6" cy="334.3" r="2.2" class="sla" opacity="0.5"/>
<circle cx="70.0" cy="334.3" r="2.2" class="sla" opacity="0.5"/>
<circle cx="70.0" cy="334.3" r="2.2" class="sla" opacity="0.5"/>
<circle cx="190.5" cy="334.3" r="2.2" class="sla" opacity="0.5"/>
<circle cx="287.9" cy="334.3" r="2.2" class="sla" opacity="0.5"/>
<circle cx="194.0" cy="334.3" r="2.2" class="sla" opacity="0.5"/>
<circle cx="70.0" cy="334.3" r="2.2" class="sla" opacity="0.5"/>
<polygon points="335.9,342.2 332.3,337.1 339.5,337.1" class="vio" opacity="0.85"/>
<polygon points="313.4,320.3 309.8,315.2 317.0,315.2" class="vio" opacity="0.85"/>
<polygon points="325.4,283.9 321.8,278.8 329.0,278.8" class="vio" opacity="0.85"/>
<polygon points="324.5,304.9 320.9,299.8 328.1,299.8" class="vio" opacity="0.85"/>
<polygon points="380.4,259.0 376.8,253.9 384.0,253.9" class="vio" opacity="0.85"/>
<polygon points="308.9,304.9 305.3,299.8 312.5,299.8" class="vio" opacity="0.85"/>
<polygon points="403.0,288.5 399.4,283.4 406.6,283.4" class="vio" opacity="0.85"/>
<polygon points="333.9,337.3 330.3,332.2 337.5,332.2" class="vio" opacity="0.85"/>
<polygon points="355.3,304.9 351.7,299.8 358.9,299.8" class="vio" opacity="0.85"/>
<polygon points="384.7,337.3 381.1,332.2 388.3,332.2" class="vio" opacity="0.85"/>
<polygon points="418.2,337.3 414.6,332.2 421.8,332.2" class="vio" opacity="0.85"/>
<polygon points="333.8,288.5 330.2,283.4 337.4,283.4" class="vio" opacity="0.85"/>
<polygon points="345.8,279.7 342.2,274.6 349.4,274.6" class="vio" opacity="0.85"/>
<polygon points="333.1,304.9 329.5,299.8 336.7,299.8" class="vio" opacity="0.85"/>
<polygon points="335.6,304.9 332.0,299.8 339.2,299.8" class="vio" opacity="0.85"/>
<polygon points="310.0,279.7 306.4,274.6 313.6,274.6" class="vio" opacity="0.85"/>
<polygon points="436.3,337.3 432.7,332.2 439.9,332.2" class="vio" opacity="0.85"/>
<polygon points="327.8,304.9 324.2,299.8 331.4,299.8" class="vio" opacity="0.85"/>
<polygon points="452.9,241.2 449.3,236.1 456.5,236.1" class="vio" opacity="0.85"/>
<polygon points="376.2,337.3 372.6,332.2 379.8,332.2" class="vio" opacity="0.85"/>
<polygon points="334.7,337.3 331.1,332.2 338.3,332.2" class="vio" opacity="0.85"/>
<polygon points="373.1,259.0 369.5,253.9 376.7,253.9" class="vio" opacity="0.85"/>
<polygon points="315.4,279.7 311.8,274.6 319.0,274.6" class="vio" opacity="0.85"/>
<polygon points="300.0,279.7 296.4,274.6 303.6,274.6" class="vio" opacity="0.85"/>
<polygon points="345.2,241.2 341.6,236.1 348.8,236.1" class="vio" opacity="0.85"/>
<polygon points="387.9,337.3 384.3,332.2 391.5,332.2" class="vio" opacity="0.85"/>
<polygon points="329.6,337.3 326.0,332.2 333.2,332.2" class="vio" opacity="0.85"/>
<polygon points="423.7,337.3 420.1,332.2 427.3,332.2" class="vio" opacity="0.85"/>
<polygon points="353.0,337.3 349.4,332.2 356.6,332.2" class="vio" opacity="0.85"/>
<polygon points="385.7,279.7 382.1,274.6 389.3,274.6" class="vio" opacity="0.85"/>
<polygon points="379.4,279.7 375.8,274.6 383.0,274.6" class="vio" opacity="0.85"/>
<polygon points="459.3,337.3 455.7,332.2 462.9,332.2" class="vio" opacity="0.85"/>
<polygon points="407.4,337.3 403.8,332.2 411.0,332.2" class="vio" opacity="0.85"/>
<polygon points="307.8,337.3 304.2,332.2 311.4,332.2" class="vio" opacity="0.85"/>
<polygon points="301.7,241.2 298.1,236.1 305.3,236.1" class="vio" opacity="0.85"/>
<polygon points="316.0,279.7 312.4,274.6 319.6,274.6" class="vio" opacity="0.85"/>
<polygon points="376.1,262.2 372.5,257.1 379.7,257.1" class="vio" opacity="0.85"/>
<polygon points="415.9,259.0 412.3,253.9 419.5,253.9" class="vio" opacity="0.85"/>
<polygon points="387.0,337.3 383.4,332.2 390.6,332.2" class="vio" opacity="0.85"/>
<polygon points="306.4,241.2 302.8,236.1 310.0,236.1" class="vio" opacity="0.85"/>
<polygon points="319.1,279.7 315.5,274.6 322.7,274.6" class="vio" opacity="0.85"/>
<polygon points="372.0,337.3 368.4,332.2 375.6,332.2" class="vio" opacity="0.85"/>
<polygon points="410.3,337.3 406.7,332.2 413.9,332.2" class="vio" opacity="0.85"/>
<polygon points="485.4,323.9 481.8,318.8 489.0,318.8" class="vio" opacity="0.85"/>
<polygon points="385.4,337.3 381.8,332.2 389.0,332.2" class="vio" opacity="0.85"/>
<polygon points="483.8,262.2 480.2,257.1 487.4,257.1" class="vio" opacity="0.85"/>
<polygon points="505.9,337.3 502.3,332.2 509.5,332.2" class="vio" opacity="0.85"/>
<polygon points="451.1,337.3 447.5,332.2 454.7,332.2" class="vio" opacity="0.85"/>
<polygon points="327.2,337.3 323.6,332.2 330.8,332.2" class="vio" opacity="0.85"/>
<polygon points="444.3,337.3 440.7,332.2 447.9,332.2" class="vio" opacity="0.85"/>
<polygon points="471.0,337.3 467.4,332.2 474.6,332.2" class="vio" opacity="0.85"/>
<polygon points="381.8,304.9 378.2,299.8 385.4,299.8" class="vio" opacity="0.85"/>
<polygon points="524.1,337.3 520.5,332.2 527.7,332.2" class="vio" opacity="0.85"/>
<polygon points="351.0,279.7 347.4,274.6 354.6,274.6" class="vio" opacity="0.85"/>
<polygon points="403.8,337.3 400.2,332.2 407.4,332.2" class="vio" opacity="0.85"/>
<polygon points="374.0,337.3 370.4,332.2 377.6,332.2" class="vio" opacity="0.85"/>
<polygon points="309.7,337.3 306.1,332.2 313.3,332.2" class="vio" opacity="0.85"/>
<polygon points="455.9,241.2 452.3,236.1 459.5,236.1" class="vio" opacity="0.85"/>
<polygon points="481.9,337.3 478.3,332.2 485.5,332.2" class="vio" opacity="0.85"/>
<polygon points="391.6,337.3 388.0,332.2 395.2,332.2" class="vio" opacity="0.85"/>
<polygon points="401.6,288.5 398.0,283.4 405.2,283.4" class="vio" opacity="0.85"/>
<polygon points="418.6,337.3 415.0,332.2 422.2,332.2" class="vio" opacity="0.85"/>
<circle cx="495.7" cy="153.2" r="3.2" class="acc" opacity="0.9"/>
<circle cx="351.5" cy="174.7" r="3.2" class="acc" opacity="0.9"/>
<circle cx="215.8" cy="190.9" r="3.2" class="acc" opacity="0.9"/>
<circle cx="379.2" cy="190.9" r="3.2" class="acc" opacity="0.9"/>
<circle cx="316.9" cy="172.3" r="3.2" class="acc" opacity="0.9"/>
<circle cx="286.4" cy="220.4" r="3.2" class="acc" opacity="0.9"/>
<circle cx="369.8" cy="171.0" r="3.2" class="acc" opacity="0.9"/>
<circle cx="359.9" cy="222.5" r="3.2" class="acc" opacity="0.9"/>
<circle cx="411.1" cy="161.7" r="3.2" class="acc" opacity="0.9"/>
<circle cx="525.7" cy="155.4" r="3.2" class="acc" opacity="0.9"/>
<circle cx="436.2" cy="222.5" r="3.2" class="acc" opacity="0.9"/>
<circle cx="541.0" cy="190.9" r="3.2" class="acc" opacity="0.9"/>
<circle cx="536.2" cy="208.4" r="3.2" class="acc" opacity="0.9"/>
<circle cx="463.4" cy="147.6" r="3.2" class="acc" opacity="0.9"/>
<polygon points="639.8,280.3 635.6,274.0 644.0,274.0" class="vio"/>
<circle cx="639.8" cy="276.7" r="6.5" class="vios" stroke-width="1.4"/>
<text x="631.8" y="294.7" text-anchor="end" class="vio" font-size="9">combo_2_36_39 · 6.11 / −0.82</text>
<polygon points="490.1,337.9 485.9,331.6 494.3,331.6" class="vio"/>
<circle cx="490.1" cy="334.3" r="6.5" class="vios" stroke-width="1.4"/>
<text x="490.1" y="324.3" text-anchor="middle" class="vio" font-size="9">prune_16 · 3.45 / −2.03</text>
<text x="70.0" y="396" text-anchor="middle" class="mut" font-size="9">-4</text>
<text x="182.7" y="396" text-anchor="middle" class="mut" font-size="9">-2</text>
<text x="295.5" y="396" text-anchor="middle" class="mut" font-size="9">0</text>
<text x="408.2" y="396" text-anchor="middle" class="mut" font-size="9">2</text>
<text x="520.9" y="396" text-anchor="middle" class="mut" font-size="9">4</text>
<text x="633.6" y="396" text-anchor="middle" class="mut" font-size="9">6</text>
<text x="64" y="335.7" text-anchor="end" class="mut" font-size="9">-2</text>
<text x="64" y="241.2" text-anchor="end" class="mut" font-size="9">0</text>
<text x="64" y="146.6" text-anchor="end" class="mut" font-size="9">2</text>
<text x="380" y="412" text-anchor="middle" class="acc" font-size="10">partial-credit t (form looks right)</text>
<text x="22" y="250" transform="rotate(-90 22 250)" text-anchor="middle" class="acc" font-size="10">strict t (actually correct)</text>
</svg>
